<?xml version="1.0" encoding="UTF-8"?><svg xmlns="http://www.w3.org/2000/svg" xmlns:xlink="http://www.w3.org/1999/xlink" contentScriptType="text/ecmascript" width="30" zoomAndPan="magnify" contentStyleType="text/css" viewBox="0 0 30 30.000001" height="30.000001" preserveAspectRatio="xMidYMid meet" version="1.0"><defs><clipPath id="clip-0"><path d="M 5 5.082031 L 25 5.082031 L 25 25 L 5 25 Z M 5 5.082031 " clip-rule="nonzero"/></clipPath></defs><path fill="rgb(9.408569%, 65.098572%, 45.489502%)" d="M 23.105469 14.3125 L 24.132812 14.3125 C 24.132812 9.777344 20.457031 6.097656 15.917969 6.097656 L 15.917969 7.125 C 19.882812 7.125 23.105469 10.347656 23.105469 14.3125 Z M 23.105469 14.3125 " fill-opacity="1" fill-rule="nonzero"/><path fill="rgb(9.408569%, 65.098572%, 45.489502%)" d="M 15.917969 9.179688 L 15.917969 10.207031 C 18.183594 10.207031 20.027344 12.050781 20.027344 14.3125 L 21.054688 14.3125 C 21.054688 11.484375 18.75 9.179688 15.917969 9.179688 Z M 15.917969 9.179688 " fill-opacity="1" fill-rule="nonzero"/><path fill="rgb(9.408569%, 65.098572%, 45.489502%)" d="M 15.917969 12.261719 L 15.917969 13.285156 C 16.484375 13.285156 16.945312 13.75 16.945312 14.3125 L 17.972656 14.3125 C 17.972656 13.179688 17.050781 12.261719 15.917969 12.261719 Z M 15.917969 12.261719 " fill-opacity="1" fill-rule="nonzero"/><g clip-path="url(#clip-0)"><path fill="rgb(9.408569%, 65.098572%, 45.489502%)" d="M 11.367188 18.863281 C 11.367188 18.863281 19.355469 26.851562 22.261719 23.949219 C 23.109375 23.097656 22.257812 23.949219 23.710938 22.496094 C 24.4375 21.769531 25.164062 21.042969 24.4375 20.316406 C 24.0625 19.941406 22.261719 18.140625 21.535156 17.410156 C 20.808594 16.6875 20.082031 17.410156 19.355469 18.136719 C 18.628906 18.863281 18.628906 18.863281 18.628906 18.863281 C 18.628906 18.863281 16.449219 19.589844 13.546875 16.6875 C 10.640625 13.78125 11.367188 11.601562 11.367188 11.601562 C 11.367188 11.601562 11.367188 11.601562 12.09375 10.875 C 12.820312 10.148438 13.546875 9.425781 12.820312 8.695312 C 12.089844 7.972656 10.292969 6.167969 9.914062 5.792969 C 9.1875 5.066406 8.460938 5.792969 7.734375 6.519531 C 6.28125 7.972656 7.136719 7.121094 6.28125 7.972656 C 3.378906 10.875 11.367188 18.863281 11.367188 18.863281 Z M 11.367188 18.863281 " fill-opacity="1" fill-rule="nonzero"/></g></svg>