<?xml version="1.0" encoding="UTF-8"?><svg xmlns="http://www.w3.org/2000/svg" xmlns:xlink="http://www.w3.org/1999/xlink" contentScriptType="text/ecmascript" width="30" zoomAndPan="magnify" contentStyleType="text/css" viewBox="0 0 30 30.000001" height="30.000001" preserveAspectRatio="xMidYMid meet" version="1.0"><defs><clipPath id="clip-0"><path d="M 4.292969 3.808594 L 26.070312 3.808594 L 26.070312 25.585938 L 4.292969 25.585938 Z M 4.292969 3.808594 " clip-rule="nonzero"/></clipPath></defs><g clip-path="url(#clip-0)"><path fill="rgb(9.408569%, 65.098572%, 45.489502%)" d="M 15.179688 3.808594 C 9.179688 3.808594 4.292969 8.695312 4.292969 14.699219 C 4.292969 20.699219 9.179688 25.585938 15.179688 25.585938 C 21.183594 25.585938 26.070312 20.699219 26.070312 14.699219 C 26.070312 8.695312 21.183594 3.808594 15.179688 3.808594 Z M 19.03125 9.96875 C 18.726562 9.875 18.355469 9.804688 17.886719 9.804688 C 16.722656 9.804688 16.230469 10.714844 16.230469 11.835938 L 16.230469 12.417969 L 18.515625 12.417969 L 18.515625 15.03125 L 16.253906 15.03125 L 16.253906 22.386719 L 12.683594 22.386719 L 12.683594 15.03125 L 11.191406 15.03125 L 11.191406 12.417969 L 12.683594 12.417969 L 12.683594 11.976562 C 12.683594 10.601562 13.105469 9.082031 14.132812 8.148438 C 15.019531 7.308594 16.253906 7.007812 17.28125 7.007812 C 18.074219 7.007812 18.679688 7.101562 19.171875 7.242188 Z M 19.03125 9.96875 " fill-opacity="1" fill-rule="nonzero"/></g></svg>