<?xml version="1.0" encoding="UTF-8"?><svg xmlns="http://www.w3.org/2000/svg" xmlns:xlink="http://www.w3.org/1999/xlink" contentScriptType="text/ecmascript" width="30" zoomAndPan="magnify" contentStyleType="text/css" viewBox="0 0 30 30.000001" height="30.000001" preserveAspectRatio="xMidYMid meet" version="1.0"><defs><clipPath id="clip-0"><path d="M 4.113281 3.628906 L 25.886719 3.628906 L 25.886719 25.402344 L 4.113281 25.402344 Z M 4.113281 3.628906 " clip-rule="nonzero"/></clipPath></defs><path fill="rgb(9.408569%, 65.098572%, 45.489502%)" d="M 15 12.246094 C 13.75 12.246094 12.730469 13.265625 12.730469 14.515625 C 12.730469 15.769531 13.75 16.785156 15 16.785156 C 16.25 16.785156 17.269531 15.769531 17.269531 14.515625 C 17.269531 13.265625 16.25 12.246094 15 12.246094 Z M 15 12.246094 " fill-opacity="1" fill-rule="nonzero"/><path fill="rgb(9.408569%, 65.098572%, 45.489502%)" d="M 18.265625 10.957031 C 18.105469 10.957031 17.972656 11.089844 17.972656 11.25 C 17.972656 11.410156 18.105469 11.542969 18.265625 11.542969 C 18.429688 11.542969 18.558594 11.410156 18.558594 11.25 C 18.558594 11.089844 18.429688 10.957031 18.265625 10.957031 Z M 18.265625 10.957031 " fill-opacity="1" fill-rule="nonzero"/><g clip-path="url(#clip-0)"><path fill="rgb(9.408569%, 65.098572%, 45.489502%)" d="M 15 3.628906 C 8.996094 3.628906 4.113281 8.515625 4.113281 14.515625 C 4.113281 20.519531 8.996094 25.402344 15 25.402344 C 21.003906 25.402344 25.886719 20.519531 25.886719 14.515625 C 25.886719 8.515625 21.003906 3.628906 15 3.628906 Z M 21.222656 16.476562 C 21.222656 18.824219 19.308594 20.738281 16.960938 20.738281 L 13.039062 20.738281 C 10.691406 20.738281 8.777344 18.824219 8.777344 16.476562 L 8.777344 12.554688 C 8.777344 10.207031 10.691406 8.296875 13.039062 8.296875 L 16.960938 8.296875 C 19.308594 8.296875 21.222656 10.207031 21.222656 12.554688 Z M 21.222656 16.476562 " fill-opacity="1" fill-rule="nonzero"/></g><path fill="rgb(9.408569%, 65.098572%, 45.489502%)" d="M 16.960938 9.1875 L 13.039062 9.1875 C 11.183594 9.1875 9.671875 10.699219 9.671875 12.554688 L 9.671875 16.476562 C 9.671875 18.335938 11.183594 19.847656 13.039062 19.847656 L 16.960938 19.847656 C 18.816406 19.847656 20.328125 18.335938 20.328125 16.476562 L 20.328125 12.554688 C 20.328125 10.699219 18.816406 9.1875 16.960938 9.1875 Z M 15 17.675781 C 13.257812 17.675781 11.839844 16.257812 11.839844 14.515625 C 11.839844 12.773438 13.257812 11.355469 15 11.355469 C 16.742188 11.355469 18.160156 12.773438 18.160156 14.515625 C 18.160156 16.257812 16.742188 17.675781 15 17.675781 Z M 18.265625 12.433594 C 17.613281 12.433594 17.082031 11.902344 17.082031 11.25 C 17.082031 10.597656 17.613281 10.066406 18.265625 10.066406 C 18.917969 10.066406 19.449219 10.597656 19.449219 11.25 C 19.449219 11.902344 18.917969 12.433594 18.265625 12.433594 Z M 18.265625 12.433594 " fill-opacity="1" fill-rule="nonzero"/></svg>