<?xml version="1.0" encoding="UTF-8"?><svg xmlns="http://www.w3.org/2000/svg" xmlns:xlink="http://www.w3.org/1999/xlink" contentScriptType="text/ecmascript" width="30" zoomAndPan="magnify" contentStyleType="text/css" viewBox="0 0 30 30.000001" height="30.000001" preserveAspectRatio="xMidYMid meet" version="1.0"><defs><clipPath id="clip-0"><path d="M 4.078125 2.902344 L 25.851562 2.902344 L 25.851562 24.675781 L 4.078125 24.675781 Z M 4.078125 2.902344 " clip-rule="nonzero"/></clipPath></defs><g clip-path="url(#clip-0)"><path fill="rgb(9.408569%, 65.098572%, 45.489502%)" d="M 14.964844 2.902344 C 8.960938 2.902344 4.078125 7.785156 4.078125 13.789062 C 4.078125 19.792969 8.960938 24.675781 14.964844 24.675781 C 20.964844 24.675781 25.851562 19.792969 25.851562 13.789062 C 25.851562 7.785156 20.964844 2.902344 14.964844 2.902344 Z M 11.648438 18.523438 L 9.757812 18.523438 L 9.757812 11.421875 L 11.648438 11.421875 Z M 10.703125 10.003906 C 10.179688 10.003906 9.757812 9.578125 9.757812 9.058594 C 9.757812 8.535156 10.179688 8.109375 10.703125 8.109375 C 11.226562 8.109375 11.648438 8.535156 11.648438 9.058594 C 11.648438 9.578125 11.226562 10.003906 10.703125 10.003906 Z M 20.644531 18.523438 L 18.75 18.523438 L 18.75 14.972656 C 18.75 14.0625 18.003906 13.316406 17.09375 13.316406 C 16.183594 13.316406 15.4375 14.0625 15.4375 14.972656 L 15.4375 18.523438 L 13.542969 18.523438 L 13.542969 11.421875 L 15.4375 11.421875 L 15.4375 12.28125 C 15.988281 11.753906 16.738281 11.421875 17.566406 11.421875 C 19.265625 11.421875 20.644531 12.800781 20.644531 14.5 Z M 20.644531 18.523438 " fill-opacity="1" fill-rule="nonzero"/></g></svg>