<?xml version="1.0" encoding="UTF-8"?><svg xmlns="http://www.w3.org/2000/svg" xmlns:xlink="http://www.w3.org/1999/xlink" contentScriptType="text/ecmascript" width="30" zoomAndPan="magnify" contentStyleType="text/css" viewBox="0 0 30 30.000001" height="30.000001" preserveAspectRatio="xMidYMid meet" version="1.0"><defs><clipPath id="clip-0"><path d="M 4.183594 3.703125 L 25.960938 3.703125 L 25.960938 25.476562 L 4.183594 25.476562 Z M 4.183594 3.703125 " clip-rule="nonzero"/></clipPath></defs><g clip-path="url(#clip-0)"><path fill="rgb(9.408569%, 65.098572%, 45.489502%)" d="M 20.882812 13.375 L 20.882812 13.828125 L 20.015625 13.828125 C 19.492188 13.828125 18.976562 13.734375 18.5 13.515625 C 18.238281 13.398438 17.992188 13.246094 17.773438 13.070312 L 17.773438 17.003906 C 17.722656 20.074219 15.675781 21.433594 13.183594 21.242188 C 11.09375 21.078125 9.40625 19.382812 9.269531 17.289062 C 9.109375 14.820312 11.070312 12.757812 13.507812 12.757812 C 13.585938 12.757812 13.65625 12.761719 13.722656 12.765625 L 13.832031 12.773438 L 13.832031 15.582031 L 13.683594 15.5625 C 13.660156 15.558594 13.644531 15.558594 13.621094 15.554688 C 13.578125 15.546875 13.539062 15.542969 13.511719 15.542969 C 12.667969 15.542969 11.984375 16.269531 12.050781 17.128906 C 12.113281 17.910156 12.804688 18.515625 13.585938 18.480469 C 14.390625 18.441406 15.054688 17.808594 15.054688 17.054688 L 15.074219 7.917969 L 17.742188 7.917969 L 17.792969 8.3125 C 17.9375 9.6875 19.054688 10.738281 20.433594 10.835938 L 20.882812 10.871094 Z M 15.074219 3.703125 C 9.058594 3.703125 4.183594 8.574219 4.183594 14.589844 C 4.183594 20.601562 9.058594 25.476562 15.074219 25.476562 C 21.085938 25.476562 25.960938 20.601562 25.960938 14.589844 C 25.960938 8.574219 21.085938 3.703125 15.074219 3.703125 " fill-opacity="1" fill-rule="nonzero"/></g></svg>