<?xml version="1.0" encoding="UTF-8"?><svg xmlns="http://www.w3.org/2000/svg" xmlns:xlink="http://www.w3.org/1999/xlink" contentScriptType="text/ecmascript" width="30" zoomAndPan="magnify" contentStyleType="text/css" viewBox="0 0 30 30.000001" height="30.000001" preserveAspectRatio="xMidYMid meet" version="1.0"><defs><clipPath id="clip-0"><path d="M 9.195312 8.710938 L 20.804688 8.710938 L 20.804688 20.324219 L 9.195312 20.324219 Z M 9.195312 8.710938 " clip-rule="nonzero"/></clipPath><clipPath id="clip-1"><path d="M 3.386719 4.136719 L 25.160156 4.136719 L 25.160156 25.910156 L 3.386719 25.910156 Z M 3.386719 4.136719 " clip-rule="nonzero"/></clipPath></defs><g clip-path="url(#clip-0)"><path fill="rgb(100%, 100%, 100%)" d="M 20.804688 14.515625 C 20.804688 17.722656 18.207031 20.324219 15 20.324219 C 11.792969 20.324219 9.195312 17.722656 9.195312 14.515625 C 9.195312 11.308594 11.792969 8.710938 15 8.710938 C 18.207031 8.710938 20.804688 11.308594 20.804688 14.515625 Z M 13.9375 17.578125 C 16.511719 17.578125 17.921875 15.445312 17.921875 13.597656 C 17.921875 13.535156 17.921875 13.472656 17.917969 13.414062 C 18.191406 13.21875 18.429688 12.972656 18.617188 12.691406 C 18.367188 12.800781 18.097656 12.875 17.8125 12.910156 C 18.105469 12.738281 18.324219 12.464844 18.429688 12.136719 C 18.160156 12.296875 17.859375 12.410156 17.539062 12.476562 C 17.285156 12.203125 16.921875 12.035156 16.519531 12.035156 C 15.746094 12.035156 15.117188 12.660156 15.117188 13.433594 C 15.117188 13.542969 15.128906 13.652344 15.15625 13.753906 C 13.992188 13.695312 12.960938 13.136719 12.269531 12.289062 C 12.152344 12.496094 12.082031 12.738281 12.082031 12.992188 C 12.082031 13.476562 12.328125 13.90625 12.707031 14.15625 C 12.476562 14.148438 12.261719 14.085938 12.074219 13.980469 C 12.074219 13.988281 12.074219 13.992188 12.074219 14 C 12.074219 14.679688 12.554688 15.242188 13.195312 15.371094 C 13.082031 15.40625 12.957031 15.421875 12.828125 15.421875 C 12.738281 15.421875 12.652344 15.414062 12.5625 15.394531 C 12.742188 15.953125 13.257812 16.355469 13.871094 16.367188 C 13.390625 16.742188 12.789062 16.964844 12.132812 16.964844 C 12.019531 16.964844 11.90625 16.960938 11.796875 16.945312 C 12.410156 17.347656 13.148438 17.578125 13.9375 17.578125 " fill-opacity="1" fill-rule="nonzero"/></g><g clip-path="url(#clip-1)"><path fill="rgb(9.408569%, 65.098572%, 45.489502%)" d="M 25.160156 15.023438 C 25.160156 15.738281 25.089844 16.445312 24.953125 17.148438 C 24.8125 17.847656 24.605469 18.53125 24.332031 19.191406 C 24.058594 19.851562 23.722656 20.476562 23.328125 21.074219 C 22.929688 21.667969 22.476562 22.21875 21.972656 22.722656 C 21.46875 23.226562 20.917969 23.679688 20.324219 24.078125 C 19.726562 24.472656 19.101562 24.808594 18.441406 25.082031 C 17.78125 25.355469 17.097656 25.5625 16.398438 25.703125 C 15.695312 25.839844 14.988281 25.910156 14.273438 25.910156 C 13.558594 25.910156 12.851562 25.839844 12.148438 25.703125 C 11.449219 25.5625 10.769531 25.355469 10.109375 25.082031 C 9.449219 24.808594 8.820312 24.472656 8.226562 24.078125 C 7.632812 23.679688 7.082031 23.226562 6.574219 22.722656 C 6.070312 22.21875 5.617188 21.667969 5.222656 21.074219 C 4.824219 20.476562 4.488281 19.851562 4.214844 19.191406 C 3.941406 18.53125 3.734375 17.847656 3.597656 17.148438 C 3.457031 16.445312 3.386719 15.738281 3.386719 15.023438 C 3.386719 14.308594 3.457031 13.601562 3.597656 12.898438 C 3.734375 12.199219 3.941406 11.519531 4.214844 10.859375 C 4.488281 10.199219 4.824219 9.570312 5.222656 8.976562 C 5.617188 8.382812 6.070312 7.832031 6.574219 7.324219 C 7.082031 6.820312 7.632812 6.367188 8.226562 5.972656 C 8.820312 5.574219 9.449219 5.238281 10.109375 4.964844 C 10.769531 4.691406 11.449219 4.484375 12.148438 4.347656 C 12.851562 4.207031 13.558594 4.136719 14.273438 4.136719 C 14.988281 4.136719 15.695312 4.207031 16.398438 4.347656 C 17.097656 4.484375 17.78125 4.691406 18.441406 4.964844 C 19.101562 5.238281 19.726562 5.574219 20.324219 5.972656 C 20.917969 6.367188 21.46875 6.820312 21.972656 7.324219 C 22.476562 7.832031 22.929688 8.382812 23.328125 8.976562 C 23.722656 9.570312 24.058594 10.199219 24.332031 10.859375 C 24.605469 11.519531 24.8125 12.199219 24.953125 12.898438 C 25.089844 13.601562 25.160156 14.308594 25.160156 15.023438 Z M 25.160156 15.023438 " fill-opacity="1" fill-rule="nonzero"/></g><path fill="rgb(100%, 100%, 100%)" d="M 12.28125 20.765625 C 17.109375 20.765625 19.75 16.765625 19.75 13.296875 C 19.75 13.183594 19.75 13.070312 19.746094 12.960938 C 20.257812 12.589844 20.703125 12.128906 21.058594 11.601562 C 20.589844 11.808594 20.082031 11.949219 19.550781 12.015625 C 20.09375 11.6875 20.507812 11.175781 20.703125 10.558594 C 20.195312 10.859375 19.636719 11.078125 19.039062 11.199219 C 18.558594 10.6875 17.878906 10.371094 17.121094 10.371094 C 15.671875 10.371094 14.496094 11.546875 14.496094 12.992188 C 14.496094 13.199219 14.519531 13.402344 14.566406 13.59375 C 12.386719 13.484375 10.453125 12.4375 9.15625 10.847656 C 8.933594 11.234375 8.804688 11.6875 8.804688 12.167969 C 8.804688 13.074219 9.265625 13.882812 9.972656 14.347656 C 9.542969 14.339844 9.140625 14.21875 8.785156 14.023438 C 8.785156 14.035156 8.785156 14.042969 8.785156 14.054688 C 8.785156 15.328125 9.691406 16.386719 10.894531 16.628906 C 10.675781 16.691406 10.441406 16.722656 10.203125 16.722656 C 10.035156 16.722656 9.871094 16.707031 9.707031 16.671875 C 10.039062 17.71875 11.007812 18.476562 12.15625 18.496094 C 11.257812 19.199219 10.125 19.617188 8.894531 19.617188 C 8.683594 19.617188 8.476562 19.609375 8.269531 19.582031 C 9.417969 20.332031 10.800781 20.765625 12.28125 20.765625 " fill-opacity="1" fill-rule="nonzero"/></svg>