<?xml version="1.0" encoding="UTF-8"?><svg xmlns="http://www.w3.org/2000/svg" xmlns:xlink="http://www.w3.org/1999/xlink" contentScriptType="text/ecmascript" width="30" zoomAndPan="magnify" contentStyleType="text/css" viewBox="0 0 30 30.000001" height="30.000001" preserveAspectRatio="xMidYMid meet" version="1.0"><defs><clipPath id="clip-0"><path d="M 4.292969 3.808594 L 26.070312 3.808594 L 26.070312 25.585938 L 4.292969 25.585938 Z M 4.292969 3.808594 " clip-rule="nonzero"/></clipPath></defs><g clip-path="url(#clip-0)"><path fill="rgb(9.408569%, 65.098572%, 45.489502%)" d="M 15.179688 3.808594 C 9.175781 3.808594 4.292969 8.691406 4.292969 14.699219 C 4.292969 20.703125 9.175781 25.585938 15.179688 25.585938 C 21.1875 25.585938 26.070312 20.703125 26.070312 14.699219 C 26.050781 8.691406 21.171875 3.808594 15.179688 3.808594 Z M 22.410156 17.632812 C 22.410156 18.707031 21.539062 19.597656 20.449219 19.597656 L 9.878906 19.597656 C 8.789062 19.597656 7.917969 18.707031 7.917969 17.632812 L 7.917969 10.117188 C 7.917969 10.050781 7.933594 10 7.96875 9.949219 C 7.96875 9.933594 7.984375 9.933594 7.984375 9.917969 C 8.019531 9.882812 8.050781 9.847656 8.085938 9.816406 C 8.085938 9.816406 8.085938 9.800781 8.101562 9.800781 C 8.152344 9.78125 8.1875 9.765625 8.238281 9.765625 L 22.074219 9.765625 C 22.125 9.765625 22.175781 9.78125 22.210938 9.800781 C 22.210938 9.800781 22.210938 9.816406 22.226562 9.816406 C 22.277344 9.832031 22.3125 9.867188 22.328125 9.917969 C 22.34375 9.933594 22.34375 9.933594 22.34375 9.949219 C 22.378906 10 22.394531 10.050781 22.394531 10.117188 Z M 22.410156 17.632812 " fill-opacity="1" fill-rule="nonzero"/></g><path fill="rgb(9.408569%, 65.098572%, 45.489502%)" d="M 21.136719 10.453125 L 15.179688 15.300781 L 9.210938 10.453125 Z M 21.136719 10.453125 " fill-opacity="1" fill-rule="nonzero"/><path fill="rgb(9.408569%, 65.098572%, 45.489502%)" d="M 21.742188 17.632812 C 21.742188 18.335938 21.152344 18.925781 20.449219 18.925781 L 9.878906 18.925781 C 9.175781 18.925781 8.589844 18.335938 8.589844 17.632812 L 8.589844 10.824219 L 14.945312 15.988281 C 15.0625 16.089844 15.25 16.089844 15.367188 15.988281 L 21.742188 10.824219 Z M 21.742188 17.632812 " fill-opacity="1" fill-rule="nonzero"/></svg>