<?xml version="1.0" encoding="UTF-8"?><svg xmlns="http://www.w3.org/2000/svg" xmlns:xlink="http://www.w3.org/1999/xlink" contentScriptType="text/ecmascript" width="30" zoomAndPan="magnify" contentStyleType="text/css" viewBox="0 0 30 30.000001" height="30.000001" preserveAspectRatio="xMidYMid meet" version="1.0"><defs><clipPath id="clip-0"><path d="M 4.839844 3.738281 L 26.613281 3.738281 L 26.613281 25.511719 L 4.839844 25.511719 Z M 4.839844 3.738281 " clip-rule="nonzero"/></clipPath></defs><g clip-path="url(#clip-0)"><path fill="rgb(9.408569%, 65.098572%, 45.489502%)" d="M 15.71875 3.746094 C 9.714844 3.746094 4.839844 8.625 4.839844 14.625 C 4.839844 16.46875 5.292969 18.273438 6.191406 19.871094 L 5.261719 23.273438 C 5.101562 23.820312 5.257812 24.378906 5.664062 24.785156 C 6.066406 25.1875 6.628906 25.34375 7.171875 25.207031 L 10.714844 24.273438 C 12.261719 25.082031 13.980469 25.503906 15.734375 25.503906 C 21.734375 25.503906 26.613281 20.625 26.613281 14.625 C 26.613281 11.710938 25.488281 8.992188 23.4375 6.941406 C 21.367188 4.886719 18.628906 3.746094 15.71875 3.746094 Z M 15.71875 4.800781 C 18.347656 4.800781 20.824219 5.816406 22.664062 7.675781 C 24.523438 9.535156 25.558594 12.011719 25.542969 14.625 C 25.542969 20.046875 21.136719 24.449219 15.71875 24.449219 C 14.085938 24.449219 12.453125 24.03125 11.015625 23.257812 C 10.945312 23.222656 10.855469 23.1875 10.769531 23.1875 C 10.714844 23.1875 10.679688 23.1875 10.628906 23.203125 L 6.890625 24.1875 C 6.628906 24.257812 6.453125 24.117188 6.382812 24.046875 C 6.3125 23.976562 6.171875 23.800781 6.242188 23.539062 L 7.226562 19.921875 C 7.261719 19.785156 7.242188 19.644531 7.171875 19.519531 C 6.332031 18.046875 5.890625 16.34375 5.890625 14.625 C 5.890625 9.203125 10.296875 4.800781 15.71875 4.800781 Z M 15.71875 6.378906 C 11.171875 6.378906 7.46875 10.0625 7.46875 14.625 C 7.46875 16.082031 7.855469 17.503906 8.574219 18.75 C 8.855469 19.238281 8.925781 19.820312 8.785156 20.363281 L 8.277344 22.203125 L 10.242188 21.695312 C 10.417969 21.644531 10.59375 21.625 10.769531 21.625 C 11.121094 21.625 11.472656 21.714844 11.769531 21.890625 C 12.980469 22.519531 14.332031 22.871094 15.71875 22.871094 C 20.261719 22.871094 23.964844 19.167969 23.964844 14.625 C 23.964844 12.414062 23.105469 10.34375 21.542969 8.78125 C 19.996094 7.238281 17.929688 6.378906 15.71875 6.378906 Z M 12.050781 9.835938 L 12.542969 9.835938 C 12.734375 9.835938 12.925781 9.851562 13.121094 10.273438 C 13.347656 10.78125 13.855469 12.0625 13.910156 12.1875 C 13.980469 12.308594 14.015625 12.464844 13.925781 12.640625 C 13.839844 12.816406 13.804688 12.921875 13.664062 13.082031 C 13.542969 13.238281 13.382812 13.414062 13.277344 13.539062 C 13.15625 13.660156 13.015625 13.800781 13.171875 14.0625 C 13.332031 14.328125 13.839844 15.167969 14.613281 15.851562 C 15.59375 16.730469 16.4375 17.011719 16.699219 17.132812 C 16.960938 17.257812 17.101562 17.238281 17.261719 17.0625 C 17.417969 16.886719 17.910156 16.308594 18.085938 16.046875 C 18.261719 15.78125 18.4375 15.835938 18.664062 15.921875 C 18.910156 16.011719 20.171875 16.644531 20.4375 16.765625 C 20.699219 16.886719 20.875 16.957031 20.929688 17.0625 C 21 17.203125 21 17.714844 20.789062 18.328125 C 20.578125 18.921875 19.523438 19.519531 19.035156 19.554688 C 18.558594 19.589844 18.121094 19.765625 15.925781 18.90625 C 13.296875 17.871094 11.628906 15.167969 11.507812 14.992188 C 11.382812 14.816406 10.453125 13.589844 10.453125 12.308594 C 10.453125 11.027344 11.121094 10.414062 11.367188 10.152344 C 11.609375 9.886719 11.875 9.835938 12.050781 9.835938 Z M 12.050781 9.835938 " fill-opacity="1" fill-rule="nonzero"/></g></svg>