<?xml version="1.0" encoding="UTF-8"?><svg xmlns="http://www.w3.org/2000/svg" xmlns:xlink="http://www.w3.org/1999/xlink" contentScriptType="text/ecmascript" width="30" zoomAndPan="magnify" contentStyleType="text/css" viewBox="0 0 30 30.000001" height="30.000001" preserveAspectRatio="xMidYMid meet" version="1.0"><defs><clipPath id="clip-0"><path d="M 4.113281 2.902344 L 25.886719 2.902344 L 25.886719 24.675781 L 4.113281 24.675781 Z M 4.113281 2.902344 " clip-rule="nonzero"/></clipPath></defs><path fill="rgb(9.408569%, 65.098572%, 45.489502%)" d="M 13.644531 15.828125 L 17.183594 13.789062 L 13.644531 11.75 Z M 13.644531 15.828125 " fill-opacity="1" fill-rule="nonzero"/><g clip-path="url(#clip-0)"><path fill="rgb(9.408569%, 65.098572%, 45.489502%)" d="M 15 2.902344 C 8.988281 2.902344 4.113281 7.777344 4.113281 13.789062 C 4.113281 19.800781 8.988281 24.675781 15 24.675781 C 21.011719 24.675781 25.886719 19.800781 25.886719 13.789062 C 25.886719 7.777344 21.011719 2.902344 15 2.902344 Z M 21.804688 13.800781 C 21.804688 13.800781 21.804688 16.007812 21.523438 17.074219 C 21.367188 17.65625 20.90625 18.117188 20.324219 18.273438 C 19.257812 18.554688 15 18.554688 15 18.554688 C 15 18.554688 10.753906 18.554688 9.675781 18.261719 C 9.09375 18.105469 8.632812 17.644531 8.476562 17.0625 C 8.195312 16.007812 8.195312 13.789062 8.195312 13.789062 C 8.195312 13.789062 8.195312 11.582031 8.476562 10.519531 C 8.632812 9.933594 9.105469 9.464844 9.675781 9.308594 C 10.742188 9.027344 15 9.027344 15 9.027344 C 15 9.027344 19.257812 9.027344 20.324219 9.320312 C 20.90625 9.476562 21.367188 9.933594 21.523438 10.519531 C 21.8125 11.582031 21.804688 13.800781 21.804688 13.800781 Z M 21.804688 13.800781 " fill-opacity="1" fill-rule="nonzero"/></g></svg>