<?xml version="1.0" encoding="UTF-8"?><svg xmlns="http://www.w3.org/2000/svg" xmlns:xlink="http://www.w3.org/1999/xlink" contentScriptType="text/ecmascript" width="300" zoomAndPan="magnify" contentStyleType="text/css" viewBox="0 0 300 299.999988" height="299.999988" preserveAspectRatio="xMidYMid meet" version="1.0"><defs><clipPath id="clip-0"><path d="M 18.753906 45.078125 L 249.84375 45.078125 L 249.84375 276.117188 L 18.753906 276.117188 Z M 18.753906 45.078125 " clip-rule="nonzero"/></clipPath><clipPath id="clip-1"><path d="M 114 13.617188 L 281.253906 13.617188 L 281.253906 181 L 114 181 Z M 114 13.617188 " clip-rule="nonzero"/></clipPath></defs><g clip-path="url(#clip-0)"><path fill="rgb(9.408569%, 65.098572%, 45.489502%)" d="M 200.03125 226.574219 C 163.734375 262.867188 104.695312 262.890625 68.371094 226.648438 C 32.359375 190.710938 31.957031 132.074219 67.492188 95.664062 C 96.492188 65.949219 140.511719 59.84375 175.691406 77.332031 C 177.101562 78.03125 178.800781 77.761719 179.914062 76.648438 L 191.011719 65.550781 C 192.722656 63.835938 192.332031 60.953125 190.21875 59.773438 C 173.269531 50.324219 154.105469 45.296875 134.164062 45.296875 C 103.335938 45.296875 74.351562 57.300781 52.554688 79.101562 C 30.757812 100.898438 18.753906 129.882812 18.753906 160.710938 C 18.753906 191.394531 30.644531 220.25 52.25 242.015625 C 73.414062 263.328125 102.148438 275.605469 132.183594 276.105469 C 164.359375 276.640625 194.65625 264.113281 217.054688 241.019531 C 237.9375 219.484375 249.617188 190.546875 249.574219 160.550781 C 249.550781 140.664062 244.523438 121.554688 235.097656 104.648438 C 233.917969 102.535156 231.035156 102.152344 229.324219 103.863281 L 218.226562 114.957031 C 217.109375 116.074219 216.84375 117.773438 217.546875 119.1875 C 234.867188 154.042969 229.03125 197.570312 200.03125 226.574219 " fill-opacity="1" fill-rule="nonzero"/></g><path fill="rgb(9.408569%, 65.098572%, 45.489502%)" d="M 85.09375 111.640625 C 58.28125 138.453125 58.039062 181.925781 84.367188 209.042969 C 111.089844 236.5625 155.441406 237.097656 182.800781 210.210938 C 201.914062 191.425781 207.808594 164.261719 200.484375 140.308594 C 199.675781 137.667969 196.34375 136.839844 194.394531 138.792969 L 181.882812 151.300781 C 181.074219 152.113281 180.695312 153.257812 180.847656 154.394531 C 182.714844 168.3125 178.382812 182.914062 167.847656 193.671875 C 149.675781 212.234375 119.605469 212.519531 101.097656 194.292969 C 82.460938 175.941406 82.375 145.847656 100.839844 127.382812 C 111.632812 116.585938 126.410156 112.136719 140.488281 114.027344 C 141.621094 114.179688 142.761719 113.800781 143.570312 112.992188 L 156.082031 100.480469 C 158.027344 98.535156 157.210938 95.199219 154.578125 94.394531 C 130.804688 87.117188 103.867188 92.867188 85.09375 111.640625 " fill-opacity="1" fill-rule="nonzero"/><g clip-path="url(#clip-1)"><path fill="rgb(9.408569%, 65.098572%, 45.489502%)" d="M 257.808594 42.535156 C 254.828125 42.4375 252.433594 40.042969 252.339844 37.066406 L 251.671875 16.363281 C 251.589844 13.886719 248.589844 12.695312 246.835938 14.449219 L 219.84375 41.441406 C 215.574219 45.710938 213.261719 51.5625 213.457031 57.601562 C 213.585938 61.617188 212.042969 65.507812 209.203125 68.351562 L 140.6875 136.867188 C 138.429688 139.125 135.4375 140.464844 132.257812 140.765625 C 127.78125 141.1875 123.421875 143.109375 119.996094 146.539062 C 119.796875 146.738281 119.605469 146.9375 119.414062 147.144531 C 112.386719 154.769531 112.398438 166.691406 119.4375 174.300781 C 127.207031 182.699219 140.320312 182.894531 148.332031 174.878906 C 151.757812 171.457031 153.679688 167.101562 154.109375 162.632812 C 154.410156 159.449219 155.742188 156.449219 158.007812 154.183594 L 226.519531 85.671875 C 229.363281 82.828125 233.253906 81.289062 237.273438 81.417969 C 243.3125 81.613281 249.160156 79.300781 253.433594 75.03125 L 280.421875 48.039062 C 282.175781 46.285156 280.988281 43.28125 278.507812 43.203125 L 257.808594 42.535156 " fill-opacity="1" fill-rule="nonzero"/></g></svg>