<?xml version="1.0" encoding="UTF-8"?><svg xmlns="http://www.w3.org/2000/svg" xmlns:xlink="http://www.w3.org/1999/xlink" contentScriptType="text/ecmascript" width="187.5" zoomAndPan="magnify" contentStyleType="text/css" viewBox="0 0 187.5 187.499995" height="187.499995" preserveAspectRatio="xMidYMid meet" version="1.0"><defs><clipPath id="clip-0"><path d="M 3.851562 3.851562 L 183.851562 3.851562 L 183.851562 183.851562 L 3.851562 183.851562 Z M 3.851562 3.851562 " clip-rule="nonzero"/></clipPath></defs><g clip-path="url(#clip-0)"><path fill="rgb(9.408569%, 65.098572%, 45.489502%)" d="M 138.253906 64.453125 C 111.652344 42.453125 76.054688 42.453125 49.453125 64.453125 L 14.054688 93.851562 L 49.453125 123.253906 C 76.054688 145.253906 111.652344 145.253906 138.253906 123.253906 L 173.652344 93.851562 Z M 93.851562 127.851562 C 75.054688 127.851562 59.851562 112.652344 59.851562 93.851562 C 59.851562 75.054688 75.054688 59.851562 93.851562 59.851562 C 112.652344 59.851562 127.851562 75.054688 127.851562 93.851562 C 127.851562 112.652344 112.652344 127.851562 93.851562 127.851562 Z M 93.851562 67.851562 C 79.453125 67.851562 67.851562 79.453125 67.851562 93.851562 C 67.851562 108.253906 79.453125 119.851562 93.851562 119.851562 C 108.253906 119.851562 119.851562 108.253906 119.851562 93.851562 C 119.851562 79.453125 108.253906 67.851562 93.851562 67.851562 Z M 93.851562 107.851562 C 86.054688 107.851562 79.851562 101.652344 79.851562 93.851562 C 79.851562 86.054688 86.054688 79.851562 93.851562 79.851562 C 101.652344 79.851562 107.851562 86.054688 107.851562 93.851562 C 107.851562 101.652344 101.652344 107.851562 93.851562 107.851562 Z M 99.851562 93.851562 C 99.851562 97.054688 97.253906 99.851562 93.851562 99.851562 C 90.453125 99.851562 87.851562 97.054688 87.851562 93.851562 C 87.851562 90.453125 90.453125 87.851562 93.851562 87.851562 C 97.253906 87.851562 99.851562 90.453125 99.851562 93.851562 Z M 3.851562 39.851562 L 3.851562 19.851562 C 3.851562 11.054688 11.054688 3.851562 19.851562 3.851562 L 39.851562 3.851562 C 42.054688 3.851562 43.851562 5.652344 43.851562 7.851562 C 43.851562 10.054688 42.054688 11.851562 39.851562 11.851562 L 19.851562 11.851562 C 15.453125 11.851562 11.851562 15.453125 11.851562 19.851562 L 11.851562 39.851562 C 11.851562 42.054688 10.054688 43.851562 7.851562 43.851562 C 5.652344 43.851562 3.851562 42.054688 3.851562 39.851562 Z M 183.851562 19.851562 L 183.851562 39.851562 C 183.851562 42.054688 182.054688 43.851562 179.851562 43.851562 C 177.652344 43.851562 175.851562 42.054688 175.851562 39.851562 L 175.851562 19.851562 C 175.851562 15.453125 172.253906 11.851562 167.851562 11.851562 L 147.851562 11.851562 C 145.652344 11.851562 143.851562 10.054688 143.851562 7.851562 C 143.851562 5.652344 145.652344 3.851562 147.851562 3.851562 L 167.851562 3.851562 C 176.652344 3.851562 183.851562 11.054688 183.851562 19.851562 Z M 183.851562 147.851562 L 183.851562 167.851562 C 183.851562 176.652344 176.652344 183.851562 167.851562 183.851562 L 147.851562 183.851562 C 145.652344 183.851562 143.851562 182.054688 143.851562 179.851562 C 143.851562 177.652344 145.652344 175.851562 147.851562 175.851562 L 167.851562 175.851562 C 172.253906 175.851562 175.851562 172.253906 175.851562 167.851562 L 175.851562 147.851562 C 175.851562 145.652344 177.652344 143.851562 179.851562 143.851562 C 182.054688 143.851562 183.851562 145.652344 183.851562 147.851562 Z M 43.851562 179.851562 C 43.851562 182.054688 42.054688 183.851562 39.851562 183.851562 L 19.851562 183.851562 C 11.054688 183.851562 3.851562 176.652344 3.851562 167.851562 L 3.851562 147.851562 C 3.851562 145.652344 5.652344 143.851562 7.851562 143.851562 C 10.054688 143.851562 11.851562 145.652344 11.851562 147.851562 L 11.851562 167.851562 C 11.851562 172.253906 15.453125 175.851562 19.851562 175.851562 L 39.851562 175.851562 C 42.054688 175.851562 43.851562 177.652344 43.851562 179.851562 Z M 43.851562 179.851562 " fill-opacity="1" fill-rule="nonzero"/></g></svg>