<?xml version="1.0" encoding="UTF-8"?><svg xmlns="http://www.w3.org/2000/svg" xmlns:xlink="http://www.w3.org/1999/xlink" contentScriptType="text/ecmascript" width="150" zoomAndPan="magnify" contentStyleType="text/css" viewBox="0 0 150 149.999998" height="149.999998" preserveAspectRatio="xMidYMid meet" version="1.0"><defs><clipPath id="clip-0"><path d="M 9.960938 7.4375 L 139.710938 7.4375 L 139.710938 137.1875 L 9.960938 137.1875 Z M 9.960938 7.4375 " clip-rule="nonzero"/></clipPath></defs><g clip-path="url(#clip-0)"><path fill="rgb(9.408569%, 65.098572%, 45.489502%)" d="M 106.839844 51.121094 C 87.664062 35.261719 62.003906 35.261719 42.828125 51.121094 L 17.3125 72.3125 L 42.828125 93.507812 C 62.003906 109.363281 87.664062 109.363281 106.839844 93.507812 L 132.355469 72.3125 Z M 74.835938 96.820312 C 61.28125 96.820312 50.324219 85.863281 50.324219 72.3125 C 50.324219 58.761719 61.28125 47.804688 74.835938 47.804688 C 88.386719 47.804688 99.34375 58.761719 99.34375 72.3125 C 99.34375 85.863281 88.386719 96.820312 74.835938 96.820312 Z M 74.835938 53.570312 C 64.453125 53.570312 56.09375 61.933594 56.09375 72.3125 C 56.09375 82.695312 64.453125 91.054688 74.835938 91.054688 C 85.214844 91.054688 93.574219 82.695312 93.574219 72.3125 C 93.574219 61.933594 85.214844 53.570312 74.835938 53.570312 Z M 74.835938 82.40625 C 69.210938 82.40625 64.742188 77.9375 64.742188 72.3125 C 64.742188 66.691406 69.210938 62.222656 74.835938 62.222656 C 80.457031 62.222656 84.925781 66.691406 84.925781 72.3125 C 84.925781 77.9375 80.457031 82.40625 74.835938 82.40625 Z M 79.160156 72.3125 C 79.160156 74.621094 77.285156 76.636719 74.835938 76.636719 C 72.382812 76.636719 70.507812 74.621094 70.507812 72.3125 C 70.507812 69.863281 72.382812 67.988281 74.835938 67.988281 C 77.285156 67.988281 79.160156 69.863281 79.160156 72.3125 Z M 9.960938 33.386719 L 9.960938 18.972656 C 9.960938 12.628906 15.148438 7.4375 21.492188 7.4375 L 35.910156 7.4375 C 37.496094 7.4375 38.792969 8.734375 38.792969 10.320312 C 38.792969 11.90625 37.496094 13.207031 35.910156 13.207031 L 21.492188 13.207031 C 18.320312 13.207031 15.726562 15.800781 15.726562 18.972656 L 15.726562 33.386719 C 15.726562 34.972656 14.429688 36.273438 12.84375 36.273438 C 11.257812 36.273438 9.960938 34.972656 9.960938 33.386719 Z M 139.710938 18.972656 L 139.710938 33.386719 C 139.710938 34.972656 138.410156 36.273438 136.824219 36.273438 C 135.238281 36.273438 133.941406 34.972656 133.941406 33.386719 L 133.941406 18.972656 C 133.941406 15.800781 131.347656 13.207031 128.175781 13.207031 L 113.757812 13.207031 C 112.171875 13.207031 110.875 11.90625 110.875 10.320312 C 110.875 8.734375 112.171875 7.4375 113.757812 7.4375 L 128.175781 7.4375 C 134.519531 7.4375 139.710938 12.628906 139.710938 18.972656 Z M 139.710938 111.238281 L 139.710938 125.65625 C 139.710938 132 134.519531 137.1875 128.175781 137.1875 L 113.757812 137.1875 C 112.171875 137.1875 110.875 135.890625 110.875 134.304688 C 110.875 132.71875 112.171875 131.421875 113.757812 131.421875 L 128.175781 131.421875 C 131.347656 131.421875 133.941406 128.828125 133.941406 125.65625 L 133.941406 111.238281 C 133.941406 109.652344 135.238281 108.355469 136.824219 108.355469 C 138.410156 108.355469 139.710938 109.652344 139.710938 111.238281 Z M 38.792969 134.304688 C 38.792969 135.890625 37.496094 137.1875 35.910156 137.1875 L 21.492188 137.1875 C 15.148438 137.1875 9.960938 132 9.960938 125.65625 L 9.960938 111.238281 C 9.960938 109.652344 11.257812 108.355469 12.84375 108.355469 C 14.429688 108.355469 15.726562 109.652344 15.726562 111.238281 L 15.726562 125.65625 C 15.726562 128.828125 18.320312 131.421875 21.492188 131.421875 L 35.910156 131.421875 C 37.496094 131.421875 38.792969 132.71875 38.792969 134.304688 Z M 38.792969 134.304688 " fill-opacity="1" fill-rule="nonzero"/></g></svg>