<?xml version="1.0" encoding="UTF-8"?><svg xmlns="http://www.w3.org/2000/svg" xmlns:xlink="http://www.w3.org/1999/xlink" contentScriptType="text/ecmascript" width="30" zoomAndPan="magnify" contentStyleType="text/css" viewBox="0 0 30 30.000001" height="30.000001" preserveAspectRatio="xMidYMid meet" version="1.0"><defs><clipPath id="clip-0"><path d="M 16 4.910156 L 21 4.910156 L 21 9 L 16 9 Z M 16 4.910156 " clip-rule="nonzero"/></clipPath><clipPath id="clip-1"><path d="M 11 4.910156 L 16 4.910156 L 16 9 L 11 9 Z M 11 4.910156 " clip-rule="nonzero"/></clipPath><clipPath id="clip-2"><path d="M 20 4.910156 L 26.613281 4.910156 L 26.613281 12 L 20 12 Z M 20 4.910156 " clip-rule="nonzero"/></clipPath><clipPath id="clip-3"><path d="M 3.386719 5 L 26.613281 5 L 26.613281 23.046875 L 3.386719 23.046875 Z M 3.386719 5 " clip-rule="nonzero"/></clipPath><clipPath id="clip-4"><path d="M 7 4.910156 L 12 4.910156 L 12 9 L 7 9 Z M 7 4.910156 " clip-rule="nonzero"/></clipPath><clipPath id="clip-5"><path d="M 21 9 L 26.613281 9 L 26.613281 19 L 21 19 Z M 21 9 " clip-rule="nonzero"/></clipPath></defs><g clip-path="url(#clip-0)"><path fill="rgb(9.408569%, 65.098572%, 45.489502%)" d="M 16.503906 8.925781 L 18.089844 8.925781 C 18.261719 8.925781 18.398438 8.789062 18.398438 8.621094 L 18.398438 7.996094 C 18.398438 7.828125 18.261719 7.695312 18.089844 7.695312 L 18.046875 7.695312 C 18.042969 7.691406 18.039062 7.683594 18.03125 7.679688 L 18.03125 7.007812 L 20.21875 7.007812 L 20.21875 5.582031 L 18.03125 5.582031 L 18.03125 4.914062 L 16.574219 4.914062 L 16.574219 7.679688 C 16.570312 7.683594 16.566406 7.691406 16.558594 7.695312 L 16.503906 7.695312 C 16.335938 7.695312 16.195312 7.828125 16.195312 7.996094 L 16.195312 8.621094 C 16.195312 8.789062 16.335938 8.925781 16.503906 8.925781 " fill-opacity="1" fill-rule="nonzero"/></g><g clip-path="url(#clip-1)"><path fill="rgb(9.408569%, 65.098572%, 45.489502%)" d="M 12.054688 8.925781 L 13.640625 8.925781 C 13.8125 8.925781 13.949219 8.789062 13.949219 8.621094 L 13.949219 7.996094 C 13.949219 7.828125 13.8125 7.695312 13.640625 7.695312 L 13.585938 7.695312 C 13.582031 7.691406 13.574219 7.683594 13.570312 7.679688 L 13.570312 7.007812 L 15.753906 7.007812 L 15.753906 5.582031 L 13.570312 5.582031 L 13.570312 4.914062 L 12.113281 4.914062 L 12.113281 7.679688 C 12.109375 7.683594 12.105469 7.691406 12.097656 7.695312 L 12.054688 7.695312 C 11.886719 7.695312 11.75 7.828125 11.75 7.996094 L 11.75 8.621094 C 11.75 8.789062 11.886719 8.925781 12.054688 8.925781 " fill-opacity="1" fill-rule="nonzero"/></g><g clip-path="url(#clip-2)"><path fill="rgb(9.408569%, 65.098572%, 45.489502%)" d="M 24.875 5.632812 L 22.5625 5.617188 L 22.566406 4.953125 L 21.109375 4.945312 L 21.09375 7.710938 L 21.082031 7.726562 L 21.035156 7.726562 C 20.863281 7.726562 20.726562 7.859375 20.726562 8.027344 L 20.722656 8.652344 C 20.722656 8.820312 20.859375 8.953125 21.027344 8.953125 L 22.613281 8.964844 C 22.78125 8.964844 22.921875 8.832031 22.921875 8.664062 L 22.925781 8.039062 C 22.925781 7.871094 22.789062 7.734375 22.621094 7.734375 L 22.566406 7.734375 C 22.5625 7.726562 22.558594 7.726562 22.554688 7.71875 L 22.554688 7.046875 L 24.867188 7.058594 C 24.898438 7.058594 24.921875 7.082031 24.921875 7.113281 L 24.921875 9.8125 C 25.582031 10.097656 26.085938 10.601562 26.382812 11.207031 L 26.382812 7.121094 C 26.386719 6.304688 25.710938 5.636719 24.875 5.632812 " fill-opacity="1" fill-rule="nonzero"/></g><g clip-path="url(#clip-3)"><path fill="rgb(9.408569%, 65.098572%, 45.489502%)" d="M 24.925781 15.132812 L 24.925781 21.511719 C 24.925781 21.542969 24.898438 21.566406 24.867188 21.570312 L 14.890625 21.617188 L 4.910156 21.570312 C 4.882812 21.566406 4.855469 21.542969 4.855469 21.511719 L 4.980469 7.011719 C 4.980469 6.984375 5.007812 6.957031 5.039062 6.957031 L 6.894531 6.96875 L 6.902344 5.542969 L 5.046875 5.53125 C 4.214844 5.527344 3.527344 6.191406 3.523438 7.003906 L 3.398438 21.503906 C 3.394531 22.316406 4.070312 22.988281 4.902344 22.992188 L 13.367188 23.035156 C 13.367188 23.039062 13.367188 23.046875 13.367188 23.050781 L 14.890625 23.042969 L 16.414062 23.050781 C 16.410156 23.046875 16.410156 23.039062 16.410156 23.035156 L 24.875 22.992188 C 25.707031 22.988281 26.386719 22.316406 26.382812 21.503906 L 26.382812 13.742188 C 26.074219 14.367188 25.550781 14.855469 24.925781 15.132812 " fill-opacity="1" fill-rule="nonzero"/></g><g clip-path="url(#clip-4)"><path fill="rgb(9.408569%, 65.098572%, 45.489502%)" d="M 7.59375 8.925781 L 9.179688 8.925781 C 9.347656 8.925781 9.484375 8.789062 9.484375 8.621094 L 9.484375 7.996094 C 9.484375 7.828125 9.347656 7.695312 9.179688 7.695312 L 9.125 7.695312 C 9.117188 7.691406 9.113281 7.683594 9.109375 7.679688 L 9.109375 7.007812 L 11.292969 7.007812 L 11.292969 5.582031 L 9.109375 5.582031 L 9.109375 4.914062 L 7.652344 4.914062 L 7.652344 7.679688 C 7.648438 7.683594 7.640625 7.691406 7.636719 7.695312 L 7.59375 7.695312 C 7.421875 7.695312 7.285156 7.828125 7.285156 7.996094 L 7.285156 8.621094 C 7.285156 8.789062 7.421875 8.925781 7.59375 8.925781 " fill-opacity="1" fill-rule="nonzero"/></g><path fill="rgb(9.408569%, 65.098572%, 45.489502%)" d="M 10.964844 11.054688 C 10.253906 10.949219 9.539062 10.890625 8.828125 10.890625 C 8.117188 10.890625 7.40625 10.949219 6.695312 11.054688 C 6.601562 11.59375 6.554688 12.140625 6.554688 12.695312 C 6.554688 13.25 6.601562 13.796875 6.695312 14.332031 C 7.40625 14.441406 8.117188 14.496094 8.828125 14.5 C 9.539062 14.496094 10.253906 14.441406 10.964844 14.332031 C 11.058594 13.796875 11.101562 13.25 11.105469 12.695312 C 11.101562 12.140625 11.058594 11.59375 10.964844 11.054688 " fill-opacity="1" fill-rule="nonzero"/><path fill="rgb(9.408569%, 65.098572%, 45.489502%)" d="M 17.023438 11.054688 C 16.3125 10.949219 15.601562 10.890625 14.890625 10.890625 C 14.179688 10.890625 13.464844 10.949219 12.753906 11.054688 C 12.660156 11.59375 12.617188 12.140625 12.613281 12.695312 C 12.617188 13.25 12.660156 13.796875 12.753906 14.332031 C 13.464844 14.441406 14.179688 14.496094 14.890625 14.5 C 15.601562 14.496094 16.3125 14.441406 17.023438 14.332031 C 17.117188 13.796875 17.164062 13.25 17.164062 12.695312 C 17.164062 12.140625 17.117188 11.59375 17.023438 11.054688 " fill-opacity="1" fill-rule="nonzero"/><path fill="rgb(9.408569%, 65.098572%, 45.489502%)" d="M 18.816406 11.054688 C 18.722656 11.59375 18.675781 12.140625 18.675781 12.695312 C 18.675781 13.25 18.722656 13.796875 18.816406 14.332031 C 19.527344 14.441406 20.238281 14.496094 20.949219 14.5 C 21.15625 14.5 21.367188 14.492188 21.574219 14.484375 C 20.835938 13.71875 20.558594 12.59375 20.90625 11.558594 C 20.988281 11.320312 21.09375 11.09375 21.230469 10.890625 C 21.136719 10.890625 21.042969 10.890625 20.949219 10.890625 C 20.238281 10.890625 19.527344 10.949219 18.816406 11.054688 " fill-opacity="1" fill-rule="nonzero"/><path fill="rgb(9.408569%, 65.098572%, 45.489502%)" d="M 8.828125 16.011719 C 8.117188 16.011719 7.40625 16.070312 6.695312 16.175781 C 6.601562 16.714844 6.554688 17.261719 6.554688 17.816406 C 6.554688 18.371094 6.601562 18.917969 6.695312 19.453125 C 7.40625 19.5625 8.117188 19.617188 8.828125 19.621094 C 9.539062 19.617188 10.253906 19.5625 10.964844 19.453125 C 11.058594 18.917969 11.101562 18.371094 11.105469 17.816406 C 11.101562 17.261719 11.058594 16.714844 10.964844 16.175781 C 10.253906 16.070312 9.539062 16.011719 8.828125 16.011719 " fill-opacity="1" fill-rule="nonzero"/><path fill="rgb(9.408569%, 65.098572%, 45.489502%)" d="M 14.890625 16.011719 C 14.179688 16.011719 13.464844 16.070312 12.753906 16.175781 C 12.660156 16.714844 12.617188 17.261719 12.613281 17.816406 C 12.617188 18.371094 12.660156 18.917969 12.753906 19.453125 C 13.464844 19.5625 14.179688 19.617188 14.890625 19.621094 C 15.601562 19.617188 16.3125 19.5625 17.023438 19.453125 C 17.117188 18.917969 17.164062 18.371094 17.164062 17.816406 C 17.164062 17.261719 17.117188 16.714844 17.023438 16.175781 C 16.3125 16.070312 15.601562 16.011719 14.890625 16.011719 " fill-opacity="1" fill-rule="nonzero"/><path fill="rgb(9.408569%, 65.098572%, 45.489502%)" d="M 21.578125 16.027344 C 21.371094 16.015625 21.160156 16.011719 20.949219 16.007812 C 20.238281 16.011719 19.527344 16.070312 18.816406 16.175781 C 18.722656 16.714844 18.675781 17.261719 18.675781 17.8125 C 18.675781 18.371094 18.722656 18.917969 18.816406 19.453125 C 19.527344 19.5625 20.238281 19.617188 20.949219 19.621094 C 21.664062 19.617188 22.371094 19.5625 23.085938 19.453125 C 23.179688 18.917969 23.222656 18.371094 23.226562 17.8125 C 23.222656 17.484375 23.207031 17.152344 23.175781 16.824219 L 22.496094 18.308594 C 22.378906 18.566406 22.121094 18.714844 21.855469 18.714844 C 21.757812 18.714844 21.664062 18.695312 21.566406 18.65625 C 21.269531 18.519531 21.101562 18.195312 21.171875 17.878906 L 21.578125 16.027344 " fill-opacity="1" fill-rule="nonzero"/><g clip-path="url(#clip-5)"><path fill="rgb(9.408569%, 65.098572%, 45.489502%)" d="M 26.179688 13.273438 C 26.628906 11.933594 25.890625 10.492188 24.53125 10.050781 C 23.171875 9.609375 21.703125 10.335938 21.253906 11.675781 C 20.882812 12.785156 21.332031 13.972656 22.273438 14.59375 L 21.53125 17.957031 C 21.496094 18.105469 21.574219 18.257812 21.71875 18.324219 C 21.886719 18.398438 22.085938 18.324219 22.160156 18.160156 L 23.597656 15.023438 C 24.730469 15.074219 25.804688 14.386719 26.179688 13.273438 " fill-opacity="1" fill-rule="nonzero"/></g></svg>