<?xml version="1.0" encoding="UTF-8"?><svg xmlns="http://www.w3.org/2000/svg" xmlns:xlink="http://www.w3.org/1999/xlink" contentScriptType="text/ecmascript" width="30" zoomAndPan="magnify" contentStyleType="text/css" viewBox="0 0 30 30.000001" height="30.000001" preserveAspectRatio="xMidYMid meet" version="1.0"><defs><clipPath id="clip-0"><path d="M 3.386719 2.902344 L 25.144531 2.902344 L 25.144531 25.402344 L 3.386719 25.402344 Z M 3.386719 2.902344 " clip-rule="nonzero"/></clipPath></defs><g clip-path="url(#clip-0)"><path fill="rgb(9.408569%, 65.098572%, 45.489502%)" d="M 22.945312 8.925781 C 23.140625 8.800781 23.324219 8.660156 23.492188 8.496094 C 23.660156 8.332031 23.808594 8.152344 23.9375 7.957031 C 24.066406 7.761719 24.171875 7.554688 24.253906 7.335938 C 24.339844 7.117188 24.398438 6.894531 24.433594 6.664062 C 24.46875 6.429688 24.476562 6.199219 24.464844 5.964844 C 24.449219 5.734375 24.40625 5.503906 24.34375 5.28125 C 24.277344 5.054688 24.191406 4.839844 24.078125 4.632812 C 23.96875 4.429688 23.835938 4.238281 23.683594 4.058594 C 23.53125 3.882812 23.359375 3.722656 23.171875 3.582031 C 22.984375 3.441406 22.785156 3.324219 22.574219 3.226562 C 22.359375 3.128906 22.136719 3.054688 21.910156 3.003906 C 21.679688 2.957031 21.449219 2.929688 21.214844 2.929688 C 20.980469 2.929688 20.75 2.957031 20.519531 3.003906 C 20.292969 3.054688 20.070312 3.128906 19.855469 3.226562 C 19.644531 3.324219 19.445312 3.441406 19.257812 3.582031 C 19.070312 3.722656 18.898438 3.882812 18.746094 4.058594 C 18.59375 4.238281 18.460938 4.429688 18.351562 4.632812 C 18.238281 4.839844 18.152344 5.054688 18.085938 5.28125 C 18.023438 5.503906 17.980469 5.734375 17.96875 5.964844 C 17.953125 6.199219 17.960938 6.429688 17.996094 6.664062 C 18.03125 6.894531 18.089844 7.117188 18.175781 7.335938 C 18.257812 7.554688 18.363281 7.761719 18.492188 7.957031 C 18.621094 8.152344 18.769531 8.332031 18.9375 8.496094 C 19.105469 8.660156 19.289062 8.800781 19.484375 8.925781 C 18.714844 9.304688 18.132812 9.871094 17.734375 10.628906 C 17.339844 9.871094 16.753906 9.304688 15.984375 8.925781 C 16.183594 8.800781 16.367188 8.660156 16.535156 8.496094 C 16.703125 8.332031 16.847656 8.152344 16.976562 7.957031 C 17.105469 7.761719 17.210938 7.554688 17.296875 7.335938 C 17.378906 7.117188 17.4375 6.894531 17.472656 6.664062 C 17.507812 6.429688 17.519531 6.199219 17.503906 5.964844 C 17.488281 5.734375 17.449219 5.503906 17.382812 5.28125 C 17.320312 5.054688 17.230469 4.839844 17.121094 4.632812 C 17.007812 4.429688 16.875 4.238281 16.722656 4.058594 C 16.570312 3.882812 16.402344 3.722656 16.214844 3.582031 C 16.027344 3.441406 15.828125 3.324219 15.613281 3.226562 C 15.402344 3.128906 15.179688 3.054688 14.949219 3.003906 C 14.722656 2.957031 14.492188 2.929688 14.257812 2.929688 C 14.023438 2.929688 13.789062 2.957031 13.5625 3.003906 C 13.332031 3.054688 13.113281 3.128906 12.898438 3.226562 C 12.683594 3.324219 12.484375 3.441406 12.296875 3.582031 C 12.109375 3.722656 11.941406 3.882812 11.789062 4.058594 C 11.636719 4.238281 11.503906 4.429688 11.390625 4.632812 C 11.28125 4.839844 11.191406 5.054688 11.128906 5.28125 C 11.0625 5.503906 11.023438 5.734375 11.007812 5.964844 C 10.992188 6.199219 11.003906 6.429688 11.039062 6.664062 C 11.074219 6.894531 11.132812 7.117188 11.214844 7.335938 C 11.300781 7.554688 11.40625 7.761719 11.535156 7.957031 C 11.664062 8.152344 11.8125 8.332031 11.976562 8.496094 C 12.144531 8.660156 12.328125 8.800781 12.527344 8.925781 C 11.757812 9.304688 11.175781 9.871094 10.777344 10.628906 C 10.378906 9.871094 9.796875 9.304688 9.027344 8.925781 C 9.226562 8.804688 9.40625 8.660156 9.574219 8.496094 C 9.742188 8.332031 9.890625 8.152344 10.019531 7.957031 C 10.148438 7.761719 10.253906 7.554688 10.339844 7.335938 C 10.421875 7.117188 10.480469 6.894531 10.515625 6.664062 C 10.550781 6.429688 10.5625 6.199219 10.546875 5.964844 C 10.53125 5.734375 10.492188 5.503906 10.425781 5.277344 C 10.363281 5.054688 10.273438 4.839844 10.164062 4.632812 C 10.050781 4.429688 9.921875 4.238281 9.765625 4.058594 C 9.613281 3.882812 9.445312 3.722656 9.257812 3.582031 C 9.070312 3.441406 8.871094 3.324219 8.65625 3.226562 C 8.445312 3.128906 8.222656 3.054688 7.992188 3.003906 C 7.765625 2.953125 7.535156 2.929688 7.300781 2.929688 C 7.066406 2.929688 6.832031 2.953125 6.605469 3.003906 C 6.375 3.054688 6.152344 3.128906 5.941406 3.226562 C 5.726562 3.324219 5.527344 3.441406 5.339844 3.582031 C 5.152344 3.722656 4.984375 3.882812 4.832031 4.058594 C 4.679688 4.238281 4.546875 4.429688 4.433594 4.632812 C 4.324219 4.839844 4.234375 5.054688 4.171875 5.277344 C 4.105469 5.503906 4.066406 5.734375 4.050781 5.964844 C 4.035156 6.199219 4.046875 6.429688 4.082031 6.664062 C 4.117188 6.894531 4.175781 7.117188 4.257812 7.335938 C 4.34375 7.554688 4.449219 7.761719 4.578125 7.957031 C 4.707031 8.152344 4.855469 8.332031 5.023438 8.496094 C 5.191406 8.660156 5.371094 8.804688 5.570312 8.925781 C 4.898438 9.253906 4.363281 9.738281 3.964844 10.371094 C 3.566406 11.007812 3.371094 11.699219 3.371094 12.445312 L 3.371094 16.699219 C 3.371094 16.824219 3.414062 16.929688 3.5 17.015625 C 3.589844 17.105469 3.695312 17.148438 3.820312 17.148438 L 9.039062 17.148438 L 9.050781 17.15625 C 8.378906 17.484375 7.84375 17.964844 7.445312 18.601562 C 7.046875 19.234375 6.847656 19.925781 6.847656 20.675781 L 6.847656 24.929688 C 6.847656 25.050781 6.894531 25.15625 6.980469 25.246094 C 7.066406 25.332031 7.175781 25.375 7.296875 25.375 L 21.214844 25.375 C 21.339844 25.375 21.445312 25.332031 21.53125 25.246094 C 21.621094 25.15625 21.664062 25.050781 21.664062 24.929688 L 21.664062 20.675781 C 21.664062 19.925781 21.464844 19.234375 21.066406 18.601562 C 20.671875 17.964844 20.136719 17.484375 19.460938 17.15625 L 19.472656 17.148438 L 24.695312 17.148438 C 24.820312 17.148438 24.925781 17.105469 25.011719 17.015625 C 25.101562 16.929688 25.144531 16.824219 25.144531 16.699219 L 25.144531 12.445312 C 25.144531 11.699219 24.945312 11.007812 24.550781 10.371094 C 24.152344 9.738281 23.617188 9.257812 22.945312 8.925781 Z M 18.859375 6.175781 C 18.859375 5.867188 18.917969 5.566406 19.039062 5.277344 C 19.15625 4.988281 19.328125 4.734375 19.546875 4.515625 C 19.769531 4.296875 20.023438 4.125 20.3125 4.003906 C 20.601562 3.886719 20.902344 3.828125 21.214844 3.828125 C 21.527344 3.828125 21.828125 3.886719 22.117188 4.003906 C 22.40625 4.125 22.660156 4.296875 22.882812 4.515625 C 23.101562 4.734375 23.273438 4.988281 23.394531 5.277344 C 23.511719 5.566406 23.574219 5.867188 23.574219 6.175781 C 23.574219 6.488281 23.511719 6.789062 23.394531 7.078125 C 23.273438 7.363281 23.101562 7.621094 22.882812 7.839844 C 22.660156 8.058594 22.40625 8.230469 22.117188 8.347656 C 21.828125 8.46875 21.527344 8.527344 21.214844 8.527344 C 20.902344 8.527344 20.601562 8.46875 20.3125 8.347656 C 20.023438 8.230469 19.769531 8.058594 19.546875 7.839844 C 19.328125 7.621094 19.15625 7.363281 19.039062 7.078125 C 18.917969 6.789062 18.859375 6.488281 18.859375 6.175781 Z M 20.074219 14.691406 C 19.988281 15.386719 19.660156 15.933594 19.082031 16.332031 C 18.679688 16.613281 18.230469 16.753906 17.734375 16.753906 C 17.242188 16.753906 16.792969 16.613281 16.390625 16.332031 C 16.074219 16.113281 15.824219 15.835938 15.648438 15.492188 C 15.46875 15.152344 15.378906 14.789062 15.378906 14.40625 C 15.378906 14.25 15.394531 14.09375 15.425781 13.941406 C 15.453125 13.792969 15.496094 13.648438 15.554688 13.507812 C 15.582031 13.441406 15.613281 13.371094 15.648438 13.308594 C 15.980469 12.675781 16.496094 12.28125 17.191406 12.117188 C 17.34375 12.082031 17.496094 12.0625 17.648438 12.058594 L 17.824219 12.058594 C 18.128906 12.066406 18.421875 12.132812 18.699219 12.257812 C 18.980469 12.382812 19.222656 12.554688 19.4375 12.773438 C 19.648438 12.992188 19.8125 13.242188 19.925781 13.527344 C 20.039062 13.808594 20.09375 14.105469 20.09375 14.410156 C 20.09375 14.503906 20.085938 14.597656 20.074219 14.691406 Z M 8.597656 13.507812 C 8.625 13.4375 8.65625 13.371094 8.691406 13.304688 C 9.023438 12.675781 9.539062 12.277344 10.234375 12.117188 C 10.382812 12.082031 10.535156 12.0625 10.691406 12.054688 L 10.863281 12.054688 C 11.167969 12.066406 11.460938 12.132812 11.738281 12.257812 C 12.019531 12.378906 12.265625 12.550781 12.476562 12.769531 C 12.6875 12.992188 12.851562 13.242188 12.964844 13.523438 C 13.078125 13.808594 13.136719 14.101562 13.132812 14.40625 C 13.132812 14.5 13.128906 14.597656 13.117188 14.691406 C 13.03125 15.386719 12.699219 15.933594 12.125 16.332031 C 11.71875 16.613281 11.269531 16.753906 10.777344 16.753906 C 10.285156 16.753906 9.835938 16.613281 9.429688 16.332031 C 9.113281 16.113281 8.867188 15.835938 8.6875 15.492188 C 8.511719 15.152344 8.421875 14.789062 8.421875 14.40625 C 8.421875 14.25 8.433594 14.09375 8.464844 13.941406 C 8.496094 13.792969 8.539062 13.648438 8.597656 13.507812 Z M 12.511719 17.148438 L 16 17.148438 L 16.011719 17.15625 C 15.242188 17.535156 14.65625 18.101562 14.257812 18.859375 C 13.855469 18.101562 13.273438 17.535156 12.503906 17.15625 Z M 11.898438 6.175781 C 11.898438 5.867188 11.960938 5.566406 12.078125 5.277344 C 12.199219 4.988281 12.367188 4.734375 12.589844 4.515625 C 12.8125 4.296875 13.066406 4.125 13.355469 4.003906 C 13.644531 3.886719 13.945312 3.828125 14.257812 3.828125 C 14.570312 3.828125 14.871094 3.886719 15.160156 4.003906 C 15.449219 4.125 15.703125 4.296875 15.921875 4.515625 C 16.144531 4.734375 16.316406 4.988281 16.433594 5.277344 C 16.554688 5.566406 16.613281 5.867188 16.613281 6.175781 C 16.613281 6.488281 16.554688 6.789062 16.433594 7.078125 C 16.316406 7.363281 16.144531 7.621094 15.921875 7.839844 C 15.703125 8.058594 15.449219 8.230469 15.160156 8.347656 C 14.871094 8.46875 14.570312 8.527344 14.257812 8.527344 C 13.945312 8.527344 13.644531 8.46875 13.355469 8.347656 C 13.066406 8.230469 12.8125 8.058594 12.589844 7.839844 C 12.367188 7.621094 12.199219 7.363281 12.078125 7.078125 C 11.960938 6.789062 11.898438 6.488281 11.898438 6.175781 Z M 14.257812 9.425781 C 14.859375 9.421875 15.410156 9.585938 15.914062 9.917969 C 16.417969 10.246094 16.792969 10.683594 17.035156 11.234375 L 17.015625 11.234375 C 16.9375 11.25 16.859375 11.273438 16.78125 11.296875 L 16.742188 11.308594 C 16.664062 11.332031 16.585938 11.359375 16.515625 11.390625 L 16.488281 11.402344 C 16.410156 11.433594 16.335938 11.46875 16.261719 11.503906 L 16.253906 11.503906 C 16.179688 11.542969 16.109375 11.582031 16.039062 11.625 L 16.003906 11.644531 C 15.9375 11.6875 15.875 11.730469 15.8125 11.777344 L 15.773438 11.800781 C 15.710938 11.847656 15.652344 11.898438 15.59375 11.949219 L 15.566406 11.976562 C 15.503906 12.027344 15.445312 12.085938 15.390625 12.144531 L 15.382812 12.152344 C 15.328125 12.207031 15.269531 12.265625 15.222656 12.332031 L 15.203125 12.355469 C 15.152344 12.414062 15.105469 12.480469 15.0625 12.542969 L 15.035156 12.578125 C 14.992188 12.644531 14.953125 12.710938 14.914062 12.777344 C 14.90625 12.789062 14.898438 12.800781 14.890625 12.8125 C 14.855469 12.882812 14.816406 12.957031 14.78125 13.027344 C 14.777344 13.035156 14.773438 13.042969 14.769531 13.050781 C 14.734375 13.125 14.707031 13.199219 14.675781 13.277344 L 14.671875 13.292969 C 14.644531 13.371094 14.621094 13.449219 14.597656 13.53125 L 14.585938 13.570312 C 14.566406 13.644531 14.546875 13.726562 14.535156 13.804688 C 14.535156 13.820312 14.535156 13.835938 14.527344 13.851562 C 14.511719 13.929688 14.5 14.011719 14.496094 14.09375 L 14.496094 14.128906 C 14.488281 14.21875 14.484375 14.304688 14.484375 14.394531 C 14.484375 14.484375 14.484375 14.546875 14.492188 14.621094 C 14.492188 14.644531 14.492188 14.667969 14.5 14.691406 C 14.5 14.742188 14.507812 14.796875 14.515625 14.847656 C 14.515625 14.875 14.523438 14.898438 14.527344 14.925781 C 14.539062 14.976562 14.546875 15.035156 14.558594 15.082031 L 14.574219 15.148438 C 14.589844 15.21875 14.609375 15.292969 14.632812 15.363281 C 14.632812 15.371094 14.632812 15.378906 14.640625 15.386719 C 14.660156 15.449219 14.683594 15.511719 14.707031 15.574219 C 14.714844 15.59375 14.726562 15.617188 14.734375 15.636719 C 14.753906 15.6875 14.777344 15.734375 14.796875 15.78125 C 14.808594 15.804688 14.820312 15.828125 14.832031 15.847656 C 14.855469 15.898438 14.882812 15.949219 14.910156 15.996094 C 14.921875 16.011719 14.929688 16.03125 14.9375 16.046875 C 14.976562 16.109375 15.015625 16.171875 15.058594 16.234375 L 13.453125 16.234375 C 13.453125 16.230469 13.453125 16.230469 13.453125 16.226562 C 13.496094 16.167969 13.535156 16.105469 13.570312 16.042969 C 13.582031 16.023438 13.59375 16.003906 13.601562 15.988281 C 13.628906 15.941406 13.65625 15.894531 13.679688 15.84375 L 13.714844 15.773438 C 13.734375 15.726562 13.757812 15.679688 13.777344 15.632812 L 13.808594 15.582031 C 13.832031 15.519531 13.851562 15.460938 13.871094 15.398438 C 13.871094 15.390625 13.878906 15.378906 13.882812 15.371094 C 13.902344 15.300781 13.921875 15.226562 13.941406 15.15625 L 13.953125 15.089844 C 13.964844 15.039062 13.976562 14.984375 13.984375 14.933594 C 13.984375 14.90625 13.992188 14.882812 13.996094 14.855469 C 14.003906 14.804688 14.011719 14.75 14.015625 14.699219 C 14.015625 14.675781 14.015625 14.652344 14.023438 14.628906 C 14.023438 14.554688 14.03125 14.476562 14.03125 14.402344 C 14.03125 14.332031 14.03125 14.226562 14.019531 14.140625 L 14.019531 14.101562 C 14.011719 14.019531 14 13.9375 13.988281 13.859375 C 13.988281 13.84375 13.988281 13.828125 13.980469 13.8125 C 13.964844 13.734375 13.949219 13.652344 13.929688 13.578125 L 13.921875 13.539062 C 13.898438 13.457031 13.875 13.378906 13.847656 13.300781 L 13.839844 13.285156 C 13.8125 13.207031 13.78125 13.132812 13.75 13.058594 C 13.75 13.050781 13.742188 13.042969 13.738281 13.035156 C 13.703125 12.960938 13.667969 12.890625 13.625 12.824219 C 13.617188 12.808594 13.609375 12.796875 13.601562 12.78125 C 13.5625 12.714844 13.523438 12.652344 13.480469 12.589844 L 13.453125 12.546875 C 13.410156 12.484375 13.363281 12.421875 13.316406 12.363281 L 13.289062 12.335938 C 13.242188 12.277344 13.191406 12.222656 13.140625 12.167969 L 13.125 12.148438 C 13.070312 12.09375 13.011719 12.035156 12.957031 11.988281 L 12.917969 11.953125 C 12.863281 11.90625 12.804688 11.859375 12.746094 11.816406 L 12.699219 11.78125 C 12.636719 11.738281 12.578125 11.695312 12.515625 11.65625 L 12.464844 11.625 C 12.402344 11.589844 12.34375 11.554688 12.277344 11.515625 L 12.238281 11.5 C 12.175781 11.46875 12.113281 11.441406 12.046875 11.414062 L 11.996094 11.390625 C 11.925781 11.363281 11.855469 11.339844 11.785156 11.316406 L 11.722656 11.296875 C 11.652344 11.277344 11.578125 11.257812 11.5 11.242188 L 11.476562 11.234375 C 11.71875 10.683594 12.089844 10.242188 12.59375 9.914062 C 13.101562 9.585938 13.652344 9.421875 14.257812 9.425781 Z M 4.941406 6.175781 C 4.941406 5.867188 5 5.566406 5.121094 5.277344 C 5.238281 4.988281 5.410156 4.734375 5.632812 4.515625 C 5.851562 4.296875 6.105469 4.125 6.394531 4.003906 C 6.683594 3.886719 6.984375 3.828125 7.296875 3.828125 C 7.609375 3.828125 7.910156 3.886719 8.199219 4.003906 C 8.488281 4.125 8.742188 4.296875 8.964844 4.515625 C 9.1875 4.734375 9.355469 4.988281 9.476562 5.277344 C 9.59375 5.566406 9.65625 5.867188 9.65625 6.175781 C 9.65625 6.488281 9.59375 6.789062 9.476562 7.078125 C 9.355469 7.363281 9.1875 7.621094 8.964844 7.839844 C 8.742188 8.058594 8.488281 8.230469 8.199219 8.347656 C 7.910156 8.46875 7.609375 8.527344 7.296875 8.527344 C 6.984375 8.527344 6.683594 8.46875 6.394531 8.347656 C 6.105469 8.230469 5.851562 8.058594 5.632812 7.839844 C 5.410156 7.621094 5.238281 7.363281 5.121094 7.078125 C 5 6.789062 4.941406 6.488281 4.941406 6.175781 Z M 4.265625 16.253906 L 4.265625 12.445312 C 4.265625 12.097656 4.324219 11.761719 4.441406 11.433594 C 4.558594 11.105469 4.726562 10.808594 4.945312 10.539062 C 5.164062 10.269531 5.421875 10.042969 5.71875 9.863281 C 6.015625 9.683594 6.335938 9.558594 6.675781 9.484375 C 7.019531 9.414062 7.359375 9.402344 7.707031 9.449219 C 8.050781 9.496094 8.378906 9.597656 8.6875 9.757812 C 8.996094 9.917969 9.269531 10.125 9.507812 10.375 C 9.746094 10.628906 9.933594 10.914062 10.074219 11.234375 L 10.058594 11.234375 C 9.976562 11.25 9.902344 11.273438 9.824219 11.296875 L 9.78125 11.308594 C 9.703125 11.332031 9.625 11.359375 9.558594 11.390625 L 9.527344 11.402344 C 9.453125 11.433594 9.378906 11.46875 9.304688 11.503906 L 9.292969 11.503906 C 9.21875 11.542969 9.148438 11.582031 9.078125 11.625 L 9.046875 11.644531 C 8.980469 11.6875 8.914062 11.730469 8.851562 11.777344 L 8.816406 11.800781 C 8.753906 11.847656 8.691406 11.898438 8.632812 11.949219 L 8.605469 11.976562 C 8.546875 12.027344 8.488281 12.085938 8.429688 12.144531 L 8.421875 12.152344 C 8.367188 12.207031 8.308594 12.265625 8.261719 12.332031 L 8.242188 12.355469 C 8.195312 12.414062 8.148438 12.480469 8.101562 12.542969 L 8.078125 12.578125 C 8.035156 12.644531 7.992188 12.710938 7.953125 12.777344 C 7.945312 12.789062 7.941406 12.800781 7.933594 12.8125 C 7.894531 12.882812 7.859375 12.957031 7.820312 13.027344 C 7.816406 13.035156 7.8125 13.042969 7.808594 13.050781 C 7.777344 13.125 7.746094 13.199219 7.71875 13.277344 L 7.710938 13.292969 C 7.683594 13.371094 7.660156 13.449219 7.636719 13.53125 L 7.628906 13.570312 C 7.605469 13.644531 7.589844 13.726562 7.574219 13.804688 C 7.574219 13.820312 7.574219 13.835938 7.566406 13.851562 C 7.554688 13.929688 7.542969 14.011719 7.535156 14.09375 L 7.535156 14.128906 C 7.527344 14.21875 7.523438 14.304688 7.523438 14.394531 C 7.523438 14.484375 7.523438 14.546875 7.535156 14.621094 C 7.535156 14.644531 7.535156 14.667969 7.539062 14.691406 C 7.539062 14.742188 7.550781 14.796875 7.558594 14.847656 C 7.558594 14.875 7.566406 14.898438 7.570312 14.925781 C 7.578125 14.976562 7.589844 15.035156 7.601562 15.082031 L 7.613281 15.148438 C 7.632812 15.21875 7.652344 15.292969 7.675781 15.363281 C 7.675781 15.371094 7.679688 15.378906 7.683594 15.386719 C 7.703125 15.449219 7.722656 15.511719 7.75 15.574219 C 7.757812 15.59375 7.765625 15.617188 7.777344 15.636719 C 7.796875 15.6875 7.816406 15.734375 7.839844 15.78125 C 7.851562 15.804688 7.859375 15.828125 7.871094 15.847656 C 7.898438 15.898438 7.925781 15.949219 7.953125 15.996094 C 7.960938 16.011719 7.96875 16.03125 7.980469 16.046875 C 8.015625 16.109375 8.058594 16.171875 8.101562 16.234375 Z M 7.746094 20.675781 C 7.746094 20.273438 7.824219 19.886719 7.976562 19.519531 C 8.132812 19.148438 8.351562 18.820312 8.632812 18.539062 C 8.917969 18.253906 9.246094 18.035156 9.617188 17.882812 C 9.988281 17.730469 10.375 17.652344 10.777344 17.652344 C 11.179688 17.652344 11.566406 17.730469 11.9375 17.882812 C 12.308594 18.035156 12.636719 18.253906 12.921875 18.539062 C 13.203125 18.820312 13.421875 19.148438 13.578125 19.519531 C 13.730469 19.886719 13.808594 20.273438 13.808594 20.675781 L 13.808594 24.480469 L 7.746094 24.480469 Z M 20.765625 20.675781 L 20.765625 24.480469 L 14.707031 24.480469 L 14.707031 20.675781 C 14.707031 20.273438 14.78125 19.886719 14.9375 19.519531 C 15.089844 19.148438 15.308594 18.820312 15.59375 18.539062 C 15.878906 18.253906 16.207031 18.035156 16.578125 17.882812 C 16.949219 17.730469 17.335938 17.652344 17.734375 17.652344 C 18.136719 17.652344 18.523438 17.730469 18.894531 17.882812 C 19.265625 18.035156 19.59375 18.253906 19.878906 18.539062 C 20.164062 18.820312 20.382812 19.148438 20.535156 19.519531 C 20.691406 19.886719 20.765625 20.273438 20.765625 20.675781 Z M 24.246094 16.253906 L 20.410156 16.253906 C 20.414062 16.25 20.414062 16.246094 20.410156 16.246094 C 20.453125 16.183594 20.492188 16.121094 20.53125 16.058594 C 20.542969 16.042969 20.550781 16.023438 20.5625 16.003906 C 20.589844 15.957031 20.613281 15.910156 20.636719 15.863281 L 20.671875 15.792969 C 20.695312 15.746094 20.714844 15.699219 20.734375 15.652344 L 20.761719 15.585938 C 20.785156 15.523438 20.808594 15.464844 20.828125 15.402344 C 20.828125 15.394531 20.835938 15.382812 20.835938 15.375 C 20.859375 15.304688 20.878906 15.230469 20.898438 15.160156 L 20.910156 15.09375 C 20.921875 15.042969 20.933594 14.992188 20.941406 14.9375 C 20.941406 14.914062 20.949219 14.886719 20.953125 14.859375 C 20.960938 14.808594 20.964844 14.753906 20.972656 14.703125 C 20.972656 14.679688 20.972656 14.65625 20.976562 14.632812 C 20.984375 14.558594 20.988281 14.480469 20.988281 14.410156 C 20.988281 14.335938 20.988281 14.230469 20.976562 14.144531 L 20.976562 14.105469 C 20.96875 14.023438 20.957031 13.941406 20.945312 13.863281 C 20.945312 13.847656 20.9375 13.832031 20.9375 13.816406 C 20.921875 13.738281 20.90625 13.660156 20.882812 13.582031 L 20.875 13.539062 C 20.851562 13.460938 20.828125 13.382812 20.800781 13.304688 L 20.792969 13.285156 C 20.765625 13.210938 20.734375 13.136719 20.703125 13.0625 C 20.703125 13.054688 20.695312 13.046875 20.691406 13.039062 C 20.65625 12.964844 20.621094 12.894531 20.578125 12.828125 C 20.570312 12.8125 20.5625 12.800781 20.554688 12.785156 C 20.515625 12.71875 20.476562 12.65625 20.433594 12.589844 L 20.40625 12.550781 C 20.363281 12.488281 20.316406 12.425781 20.269531 12.367188 L 20.242188 12.335938 C 20.195312 12.277344 20.148438 12.222656 20.097656 12.167969 L 20.078125 12.148438 C 20.023438 12.09375 19.964844 12.039062 19.910156 11.992188 L 19.871094 11.957031 C 19.816406 11.90625 19.757812 11.863281 19.703125 11.816406 L 19.652344 11.78125 C 19.59375 11.738281 19.53125 11.699219 19.46875 11.65625 L 19.421875 11.628906 C 19.359375 11.589844 19.296875 11.554688 19.230469 11.515625 L 19.1875 11.496094 C 19.125 11.464844 19.0625 11.433594 19 11.410156 L 18.949219 11.386719 C 18.878906 11.359375 18.808594 11.335938 18.738281 11.3125 L 18.675781 11.292969 C 18.605469 11.273438 18.53125 11.253906 18.453125 11.234375 L 18.429688 11.230469 C 18.566406 10.90625 18.753906 10.617188 18.992188 10.363281 C 19.230469 10.105469 19.503906 9.898438 19.816406 9.734375 C 20.125 9.574219 20.457031 9.46875 20.800781 9.421875 C 21.148438 9.375 21.496094 9.386719 21.835938 9.457031 C 22.179688 9.53125 22.5 9.65625 22.800781 9.839844 C 23.097656 10.023438 23.359375 10.25 23.578125 10.523438 C 23.796875 10.796875 23.964844 11.097656 24.078125 11.425781 C 24.195312 11.757812 24.25 12.097656 24.246094 12.445312 Z M 24.246094 16.253906 " fill-opacity="1" fill-rule="nonzero"/></g></svg>