<?xml version="1.0" encoding="UTF-8"?><svg xmlns="http://www.w3.org/2000/svg" xmlns:xlink="http://www.w3.org/1999/xlink" contentScriptType="text/ecmascript" width="30" zoomAndPan="magnify" contentStyleType="text/css" viewBox="0 0 30 30.000001" height="30.000001" preserveAspectRatio="xMidYMid meet" version="1.0"><defs><clipPath id="clip-0"><path d="M 14 15 L 26.894531 15 L 26.894531 21 L 14 21 Z M 14 15 " clip-rule="nonzero"/></clipPath><clipPath id="clip-1"><path d="M 4.398438 11 L 26.894531 11 L 26.894531 26.375 L 4.398438 26.375 Z M 4.398438 11 " clip-rule="nonzero"/></clipPath><clipPath id="clip-2"><path d="M 14 4.601562 L 26 4.601562 L 26 12 L 14 12 Z M 14 4.601562 " clip-rule="nonzero"/></clipPath><clipPath id="clip-3"><path d="M 14 11 L 26.894531 11 L 26.894531 14 L 14 14 Z M 14 11 " clip-rule="nonzero"/></clipPath></defs><path fill="rgb(9.408569%, 65.098572%, 45.489502%)" d="M 9.667969 10.921875 C 11.023438 10.921875 12.128906 9.820312 12.128906 8.464844 C 12.128906 7.109375 11.023438 6.007812 9.667969 6.007812 C 8.308594 6.007812 7.207031 7.109375 7.207031 8.464844 C 7.207031 9.820312 8.308594 10.921875 9.667969 10.921875 " fill-opacity="1" fill-rule="nonzero"/><g clip-path="url(#clip-0)"><path fill="rgb(9.408569%, 65.098572%, 45.489502%)" d="M 21.621094 15.136719 L 14.238281 15.136719 L 14.238281 20.050781 L 26.875 20.050781 C 26.695312 17.3125 24.410156 15.136719 21.621094 15.136719 " fill-opacity="1" fill-rule="nonzero"/></g><g clip-path="url(#clip-1)"><path fill="rgb(9.408569%, 65.098572%, 45.489502%)" d="M 7.207031 20.753906 L 7.207031 11.976562 C 7.207031 11.78125 7.050781 11.625 6.855469 11.625 L 4.746094 11.625 C 4.550781 11.625 4.394531 11.78125 4.394531 11.976562 L 4.394531 26.023438 C 4.394531 26.214844 4.550781 26.375 4.746094 26.375 L 6.855469 26.375 C 7.050781 26.375 7.207031 26.214844 7.207031 26.023438 L 7.207031 24.265625 L 24.082031 24.265625 L 24.082031 26.023438 C 24.082031 26.214844 24.238281 26.375 24.433594 26.375 L 26.542969 26.375 C 26.738281 26.375 26.894531 26.214844 26.894531 26.023438 L 26.894531 20.753906 L 7.207031 20.753906 " fill-opacity="1" fill-rule="nonzero"/></g><path fill="rgb(9.408569%, 65.098572%, 45.489502%)" d="M 10.675781 11.625 L 8.964844 11.625 C 8.671875 11.625 8.386719 11.75 8.1875 11.964844 C 7.988281 12.179688 7.890625 12.472656 7.914062 12.769531 L 8.398438 17.855469 C 8.472656 18.75 8.933594 19.523438 9.59375 20.050781 L 13.535156 20.050781 L 13.535156 15.136719 L 11.578125 12.136719 C 11.390625 11.820312 11.042969 11.625 10.675781 11.625 " fill-opacity="1" fill-rule="nonzero"/><g clip-path="url(#clip-2)"><path fill="rgb(9.408569%, 65.098572%, 45.489502%)" d="M 18.808594 11.625 L 21.621094 11.625 C 21.621094 11.238281 21.933594 10.921875 22.324219 10.921875 L 25.488281 10.921875 L 25.488281 4.953125 C 25.488281 4.757812 25.332031 4.601562 25.136719 4.601562 L 15.292969 4.601562 C 15.097656 4.601562 14.941406 4.757812 14.941406 4.953125 L 14.941406 10.921875 L 18.105469 10.921875 C 18.492188 10.921875 18.808594 11.238281 18.808594 11.625 " fill-opacity="1" fill-rule="nonzero"/></g><g clip-path="url(#clip-3)"><path fill="rgb(9.408569%, 65.098572%, 45.489502%)" d="M 15.644531 13.730469 L 24.785156 13.730469 C 25.5625 13.730469 26.191406 13.101562 26.191406 12.328125 L 26.191406 11.976562 C 26.191406 11.78125 26.035156 11.625 25.839844 11.625 L 22.324219 11.625 C 22.324219 12.011719 22.007812 12.328125 21.621094 12.328125 L 18.808594 12.328125 C 18.417969 12.328125 18.105469 12.011719 18.105469 11.625 L 14.589844 11.625 C 14.394531 11.625 14.238281 11.78125 14.238281 11.976562 L 14.238281 12.328125 C 14.238281 13.101562 14.867188 13.730469 15.644531 13.730469 " fill-opacity="1" fill-rule="nonzero"/></g></svg>