<?xml version="1.0" encoding="UTF-8"?><svg xmlns="http://www.w3.org/2000/svg" xmlns:xlink="http://www.w3.org/1999/xlink" contentScriptType="text/ecmascript" width="30" zoomAndPan="magnify" contentStyleType="text/css" viewBox="0 0 30 30.000001" height="30.000001" preserveAspectRatio="xMidYMid meet" version="1.0"><defs><clipPath id="clip-0"><path d="M 3.386719 3.738281 L 25.160156 3.738281 L 25.160156 25.511719 L 3.386719 25.511719 Z M 3.386719 3.738281 " clip-rule="nonzero"/></clipPath><clipPath id="clip-1"><path d="M 15 3.738281 L 24 3.738281 L 24 10 L 15 10 Z M 15 3.738281 " clip-rule="nonzero"/></clipPath></defs><g clip-path="url(#clip-0)"><path fill="rgb(9.408569%, 65.098572%, 45.489502%)" d="M 21.296875 20.59375 L 21.296875 15.542969 L 21.808594 15.289062 L 21.492188 14.660156 L 20.234375 15.289062 C 19.726562 15.542969 19.15625 15.679688 18.589844 15.679688 L 15.855469 15.679688 C 15.5625 15.679688 15.328125 15.441406 15.328125 15.152344 C 15.328125 14.859375 15.5625 14.625 15.855469 14.625 L 17.539062 14.625 C 18.214844 14.625 18.890625 14.464844 19.496094 14.164062 C 20.269531 13.777344 21.136719 13.570312 22 13.570312 C 23.355469 13.570312 24.457031 14.675781 24.457031 16.03125 L 24.457031 18.839844 C 24.457031 19.808594 23.671875 20.59375 22.703125 20.59375 Z M 24.457031 21.296875 L 24.457031 22 L 21.296875 22 L 21.296875 21.296875 Z M 20.597656 24.808594 L 19.894531 24.808594 L 19.894531 17.785156 L 20.597656 17.785156 Z M 18.777344 21.074219 L 17.660156 24.429688 C 17.582031 24.65625 17.371094 24.808594 17.132812 24.808594 L 16.9375 24.808594 C 16.632812 24.808594 16.382812 24.5625 16.382812 24.253906 C 16.382812 24.195312 16.390625 24.136719 16.410156 24.078125 L 17.796875 19.910156 C 17.941406 19.480469 18.34375 19.191406 18.796875 19.191406 L 19.191406 19.191406 L 19.191406 20.648438 C 19 20.722656 18.84375 20.871094 18.777344 21.074219 Z M 11.464844 17.082031 L 10.058594 17.082031 L 10.058594 15.679688 L 13.285156 15.679688 C 13.429688 16.085938 13.816406 16.382812 14.273438 16.382812 L 18.589844 16.382812 C 19.269531 16.382812 19.945312 16.21875 20.550781 15.917969 L 20.597656 15.894531 L 20.597656 17.082031 Z M 10.761719 24.808594 L 10.058594 24.808594 L 10.058594 17.785156 L 10.761719 17.785156 Z M 8.65625 22.703125 C 8.269531 22.703125 7.953125 22.386719 7.953125 22 L 7.953125 15.328125 L 7.25 15.328125 L 7.25 22 C 7.25 22.386719 6.933594 22.703125 6.546875 22.703125 C 6.160156 22.703125 5.84375 22.386719 5.84375 22 L 5.84375 14.589844 C 6.648438 14.425781 7.25 13.71875 7.25 12.867188 L 7.25 9.707031 L 7.953125 9.707031 L 7.953125 12.867188 C 7.953125 13.71875 8.554688 14.425781 9.359375 14.589844 L 9.359375 22 C 9.359375 22.386719 9.042969 22.703125 8.65625 22.703125 Z M 4.398438 15.71875 C 4.199219 15.515625 4.089844 15.25 4.089844 14.96875 L 4.089844 12.867188 C 4.089844 11.367188 5.144531 10.109375 6.546875 9.789062 L 6.546875 12.867188 C 6.546875 13.324219 6.253906 13.710938 5.84375 13.859375 L 5.84375 11.816406 L 5.144531 11.816406 L 5.144531 16.023438 C 4.863281 16.023438 4.597656 15.914062 4.398438 15.71875 Z M 5.84375 7.25 C 5.84375 6.28125 6.632812 5.492188 7.601562 5.492188 C 8.570312 5.492188 9.359375 6.28125 9.359375 7.25 C 9.359375 8.21875 8.570312 9.003906 7.601562 9.003906 C 6.632812 9.003906 5.84375 8.21875 5.84375 7.25 Z M 12.167969 6.898438 L 12.167969 4.96875 C 12.167969 4.675781 12.402344 4.441406 12.695312 4.441406 C 12.984375 4.441406 13.21875 4.675781 13.21875 4.96875 L 13.21875 7.234375 C 13.21875 9.261719 11.695312 10.929688 9.675781 11.113281 L 9.359375 11.144531 L 9.359375 13.859375 C 8.949219 13.710938 8.65625 13.324219 8.65625 12.867188 L 8.65625 9.707031 L 9.359375 9.707031 C 10.90625 9.707031 12.167969 8.449219 12.167969 6.898438 Z M 14.273438 10.761719 L 16.03125 10.761719 L 16.03125 11.464844 L 14.273438 11.464844 C 14.082031 11.464844 13.921875 11.304688 13.921875 11.113281 C 13.921875 10.917969 14.082031 10.761719 14.273438 10.761719 Z M 16.734375 13.921875 L 15.855469 13.921875 C 15.175781 13.921875 14.625 14.472656 14.625 15.152344 C 14.625 15.339844 14.671875 15.519531 14.75 15.679688 L 14.273438 15.679688 C 14.082031 15.679688 13.921875 15.519531 13.921875 15.328125 L 13.921875 12.101562 C 14.035156 12.140625 14.152344 12.167969 14.273438 12.167969 L 16.734375 12.167969 Z M 19.894531 11.113281 C 19.894531 10.144531 20.679688 9.355469 21.648438 9.355469 C 22.617188 9.355469 23.40625 10.144531 23.40625 11.113281 C 23.40625 12.082031 22.617188 12.867188 21.648438 12.867188 C 20.679688 12.867188 19.894531 12.082031 19.894531 11.113281 Z M 25.160156 18.839844 L 25.160156 16.03125 C 25.160156 14.679688 24.3125 13.53125 23.121094 13.078125 C 23.71875 12.628906 24.109375 11.914062 24.109375 11.113281 C 24.109375 9.757812 23.003906 8.65625 21.648438 8.65625 C 20.292969 8.65625 19.191406 9.757812 19.191406 11.113281 C 19.191406 11.941406 19.605469 12.675781 20.238281 13.121094 C 19.875 13.226562 19.519531 13.367188 19.179688 13.535156 C 18.671875 13.789062 18.105469 13.921875 17.539062 13.921875 L 17.433594 13.921875 L 17.433594 11.464844 L 16.734375 11.464844 L 16.734375 10.058594 L 14.273438 10.058594 C 13.691406 10.058594 13.21875 10.53125 13.21875 11.113281 L 13.21875 14.976562 L 10.058594 14.976562 L 10.058594 11.773438 C 12.285156 11.417969 13.921875 9.519531 13.921875 7.234375 L 13.921875 4.96875 C 13.921875 4.289062 13.371094 3.738281 12.695312 3.738281 C 12.015625 3.738281 11.464844 4.289062 11.464844 4.96875 L 11.464844 6.898438 C 11.464844 8.0625 10.519531 9.003906 9.359375 9.003906 L 9.320312 9.003906 C 9.777344 8.558594 10.058594 7.9375 10.058594 7.25 C 10.058594 5.894531 8.957031 4.792969 7.601562 4.792969 C 6.246094 4.792969 5.144531 5.894531 5.144531 7.25 C 5.144531 8.035156 5.515625 8.734375 6.089844 9.183594 C 4.523438 9.679688 3.386719 11.144531 3.386719 12.867188 L 3.386719 14.96875 C 3.386719 15.441406 3.570312 15.882812 3.902344 16.214844 C 4.234375 16.546875 4.679688 16.730469 5.144531 16.726562 L 5.144531 22 C 5.144531 22.773438 5.773438 23.40625 6.546875 23.40625 C 6.96875 23.40625 7.34375 23.214844 7.601562 22.917969 C 7.859375 23.214844 8.234375 23.40625 8.65625 23.40625 C 8.910156 23.40625 9.148438 23.332031 9.359375 23.210938 L 9.359375 25.511719 L 11.464844 25.511719 L 11.464844 17.785156 L 19.191406 17.785156 L 19.191406 18.488281 L 18.796875 18.488281 C 18.042969 18.488281 17.371094 18.972656 17.132812 19.6875 L 15.742188 23.855469 C 15.699219 23.984375 15.679688 24.121094 15.679688 24.253906 C 15.679688 24.949219 16.242188 25.511719 16.9375 25.511719 L 17.132812 25.511719 C 17.675781 25.511719 18.15625 25.167969 18.324219 24.652344 L 19.191406 22.058594 L 19.191406 25.511719 L 21.296875 25.511719 L 21.296875 22.703125 L 24.457031 22.703125 C 24.847656 22.703125 25.160156 22.386719 25.160156 22 L 25.160156 21.296875 C 25.160156 20.910156 24.847656 20.59375 24.457031 20.59375 L 24.421875 20.59375 C 24.878906 20.148438 25.160156 19.527344 25.160156 18.839844 " fill-opacity="1" fill-rule="nonzero"/></g><g clip-path="url(#clip-1)"><path fill="rgb(9.408569%, 65.098572%, 45.489502%)" d="M 16.03125 4.792969 C 16.03125 4.597656 16.1875 4.441406 16.382812 4.441406 L 22 4.441406 C 22.195312 4.441406 22.351562 4.597656 22.351562 4.792969 L 22.351562 6.898438 C 22.351562 7.09375 22.195312 7.25 22 7.25 L 18.488281 7.25 L 18.488281 8.15625 C 18.488281 8.277344 18.324219 8.34375 18.242188 8.261719 L 17.230469 7.25 L 16.382812 7.25 C 16.1875 7.25 16.03125 7.09375 16.03125 6.898438 Z M 16.382812 7.953125 L 16.9375 7.953125 L 17.742188 8.757812 C 17.902344 8.914062 18.121094 9.003906 18.34375 9.003906 C 18.8125 9.003906 19.191406 8.625 19.191406 8.15625 L 19.191406 7.953125 L 22 7.953125 C 22.582031 7.953125 23.054688 7.480469 23.054688 6.898438 L 23.054688 4.792969 C 23.054688 4.210938 22.582031 3.738281 22 3.738281 L 16.382812 3.738281 C 15.800781 3.738281 15.328125 4.210938 15.328125 4.792969 L 15.328125 6.898438 C 15.328125 7.480469 15.800781 7.953125 16.382812 7.953125 " fill-opacity="1" fill-rule="nonzero"/></g><path fill="rgb(9.408569%, 65.098572%, 45.489502%)" d="M 19.542969 5.492188 L 18.839844 5.492188 L 18.839844 6.195312 L 19.542969 6.195312 L 19.542969 5.492188 " fill-opacity="1" fill-rule="nonzero"/><path fill="rgb(9.408569%, 65.098572%, 45.489502%)" d="M 20.945312 5.492188 L 20.246094 5.492188 L 20.246094 6.195312 L 20.945312 6.195312 L 20.945312 5.492188 " fill-opacity="1" fill-rule="nonzero"/><path fill="rgb(9.408569%, 65.098572%, 45.489502%)" d="M 18.136719 5.492188 L 17.433594 5.492188 L 17.433594 6.195312 L 18.136719 6.195312 L 18.136719 5.492188 " fill-opacity="1" fill-rule="nonzero"/></svg>