<?xml version="1.0" encoding="UTF-8"?><svg xmlns="http://www.w3.org/2000/svg" xmlns:xlink="http://www.w3.org/1999/xlink" contentScriptType="text/ecmascript" width="30" zoomAndPan="magnify" contentStyleType="text/css" viewBox="0 0 30 30.000001" height="30.000001" preserveAspectRatio="xMidYMid meet" version="1.0"><defs><clipPath id="clip-0"><path d="M 4.023438 2.902344 L 25.796875 2.902344 L 25.796875 24.675781 L 4.023438 24.675781 Z M 4.023438 2.902344 " clip-rule="nonzero"/></clipPath><clipPath id="clip-1"><path d="M 4.023438 14 L 11 14 L 11 21 L 4.023438 21 Z M 4.023438 14 " clip-rule="nonzero"/></clipPath><clipPath id="clip-2"><path d="M 4.023438 14 L 11 14 L 11 20 L 4.023438 20 Z M 4.023438 14 " clip-rule="nonzero"/></clipPath><clipPath id="clip-3"><path d="M 4.023438 17 L 6 17 L 6 18 L 4.023438 18 Z M 4.023438 17 " clip-rule="nonzero"/></clipPath><clipPath id="clip-4"><path d="M 19.574219 13.84375 L 26.832031 13.84375 L 26.832031 21.101562 L 19.574219 21.101562 Z M 19.574219 13.84375 " clip-rule="nonzero"/></clipPath><clipPath id="clip-5"><path d="M 20 14 L 26.832031 14 L 26.832031 21 L 20 21 Z M 20 14 " clip-rule="nonzero"/></clipPath><clipPath id="clip-6"><path d="M 25 17 L 26.832031 17 L 26.832031 18 L 25 18 Z M 25 17 " clip-rule="nonzero"/></clipPath></defs><g clip-path="url(#clip-0)"><path fill="rgb(9.408569%, 65.098572%, 45.489502%)" d="M 18.628906 22.023438 L 18.628906 24.675781 L 11.195312 24.675781 L 11.195312 22.023438 C 11.195312 19.972656 12.863281 18.304688 14.910156 18.304688 C 16.960938 18.304688 18.628906 19.972656 18.628906 22.023438 Z M 25.796875 3.433594 L 25.796875 12.992188 C 25.796875 13.285156 25.558594 13.523438 25.265625 13.523438 L 17.164062 13.523438 C 16.625 12.875 15.816406 12.460938 14.910156 12.460938 C 14.007812 12.460938 13.195312 12.875 12.660156 13.523438 L 4.554688 13.523438 C 4.261719 13.523438 4.023438 13.285156 4.023438 12.992188 L 4.023438 3.433594 C 4.023438 3.140625 4.261719 2.902344 4.554688 2.902344 L 25.265625 2.902344 C 25.558594 2.902344 25.796875 3.140625 25.796875 3.433594 Z M 18.628906 8.214844 C 18.628906 8.019531 18.527344 7.84375 18.355469 7.75 L 13.574219 5.09375 C 13.410156 5.003906 13.210938 5.007812 13.050781 5.101562 C 12.886719 5.199219 12.789062 5.371094 12.789062 5.558594 L 12.789062 10.871094 C 12.789062 11.058594 12.886719 11.230469 13.050781 11.324219 C 13.132812 11.375 13.226562 11.402344 13.316406 11.402344 C 13.40625 11.402344 13.496094 11.378906 13.574219 11.335938 L 18.355469 8.679688 C 18.527344 8.585938 18.628906 8.40625 18.628906 8.214844 Z M 13.847656 9.964844 L 17.003906 8.214844 L 13.847656 6.460938 Z M 16.769531 15.382812 C 16.769531 14.359375 15.9375 13.523438 14.910156 13.523438 C 13.886719 13.523438 13.050781 14.359375 13.050781 15.382812 C 13.050781 16.410156 13.886719 17.242188 14.910156 17.242188 C 15.9375 17.242188 16.769531 16.410156 16.769531 15.382812 Z M 16.769531 15.382812 " fill-opacity="1" fill-rule="nonzero"/></g><path fill="rgb(9.408569%, 65.098572%, 45.489502%)" d="M 8.511719 15.238281 L 8.4375 15.210938 L 7.570312 17.8125 L 7.644531 17.835938 L 8.511719 15.238281 " fill-opacity="1" fill-rule="nonzero"/><path fill="rgb(9.408569%, 65.098572%, 45.489502%)" d="M 8.511719 15.238281 L 8.53125 15.1875 L 8.457031 15.160156 C 8.441406 15.15625 8.425781 15.160156 8.414062 15.164062 C 8.402344 15.171875 8.394531 15.183594 8.390625 15.195312 L 7.519531 17.796875 C 7.511719 17.824219 7.527344 17.851562 7.554688 17.863281 L 7.628906 17.886719 C 7.640625 17.890625 7.65625 17.890625 7.667969 17.882812 C 7.679688 17.878906 7.691406 17.867188 7.695312 17.855469 L 8.5625 15.253906 C 8.574219 15.226562 8.558594 15.195312 8.53125 15.1875 L 8.511719 15.238281 L 8.464844 15.21875 L 7.613281 17.769531 L 7.585938 17.761719 L 7.570312 17.8125 L 7.621094 17.828125 L 8.472656 15.277344 L 8.496094 15.285156 L 8.511719 15.238281 L 8.464844 15.21875 L 8.511719 15.238281 " fill-opacity="1" fill-rule="nonzero"/><path fill="rgb(9.408569%, 65.098572%, 45.489502%)" d="M 6.476562 16.527344 C 6.476562 16.527344 6.375 16.4375 6.324219 16.515625 C 6.269531 16.59375 6.390625 16.652344 6.390625 16.652344 L 7.839844 17.644531 L 7.925781 17.519531 L 6.476562 16.527344 " fill-opacity="1" fill-rule="nonzero"/><path fill="rgb(9.408569%, 65.098572%, 45.489502%)" d="M 6.476562 16.527344 L 6.511719 16.488281 C 6.507812 16.488281 6.496094 16.476562 6.472656 16.460938 C 6.460938 16.453125 6.449219 16.449219 6.433594 16.441406 C 6.417969 16.4375 6.398438 16.433594 6.378906 16.433594 C 6.363281 16.433594 6.34375 16.433594 6.324219 16.445312 C 6.308594 16.453125 6.292969 16.46875 6.277344 16.488281 C 6.265625 16.507812 6.257812 16.53125 6.257812 16.554688 C 6.257812 16.582031 6.265625 16.605469 6.277344 16.625 C 6.292969 16.652344 6.316406 16.667969 6.332031 16.679688 C 6.351562 16.691406 6.363281 16.699219 6.367188 16.699219 L 6.390625 16.652344 L 6.359375 16.699219 L 7.808594 17.6875 C 7.820312 17.695312 7.835938 17.699219 7.847656 17.695312 C 7.863281 17.695312 7.875 17.6875 7.882812 17.675781 L 7.96875 17.550781 C 7.984375 17.523438 7.980469 17.492188 7.953125 17.476562 L 6.503906 16.484375 L 6.476562 16.527344 L 6.511719 16.488281 L 6.476562 16.527344 L 6.445312 16.570312 L 7.851562 17.535156 L 7.824219 17.570312 L 6.417969 16.609375 C 6.417969 16.609375 6.414062 16.609375 6.414062 16.605469 C 6.410156 16.605469 6.394531 16.597656 6.382812 16.582031 C 6.375 16.578125 6.367188 16.570312 6.367188 16.566406 C 6.363281 16.5625 6.363281 16.558594 6.363281 16.554688 C 6.363281 16.554688 6.363281 16.550781 6.367188 16.546875 C 6.371094 16.539062 6.371094 16.539062 6.375 16.539062 C 6.375 16.539062 6.375 16.539062 6.378906 16.539062 C 6.382812 16.539062 6.390625 16.539062 6.394531 16.542969 C 6.40625 16.546875 6.417969 16.550781 6.425781 16.558594 C 6.429688 16.5625 6.433594 16.5625 6.4375 16.566406 L 6.441406 16.566406 L 6.449219 16.554688 L 6.441406 16.566406 L 6.449219 16.554688 L 6.441406 16.566406 L 6.445312 16.570312 L 6.476562 16.527344 " fill-opacity="1" fill-rule="nonzero"/><g clip-path="url(#clip-1)"><path fill="rgb(9.408569%, 65.098572%, 45.489502%)" d="M 5.125 15.914062 C 4.265625 17.308594 4.703125 19.144531 6.097656 20.003906 C 7.492188 20.859375 9.324219 20.425781 10.183594 19.03125 C 11.042969 17.636719 10.605469 15.800781 9.210938 14.941406 C 7.816406 14.085938 5.984375 14.519531 5.125 15.914062 Z M 10.363281 19.140625 C 9.445312 20.632812 7.480469 21.101562 5.984375 20.183594 C 4.492188 19.261719 4.023438 17.296875 4.945312 15.804688 C 5.863281 14.3125 7.828125 13.84375 9.324219 14.761719 C 10.816406 15.683594 11.285156 17.648438 10.363281 19.140625 " fill-opacity="1" fill-rule="nonzero"/><path fill="rgb(9.408569%, 65.098572%, 45.489502%)" d="M 5.125 15.914062 L 5.117188 15.910156 C 4.816406 16.394531 4.675781 16.933594 4.675781 17.46875 C 4.675781 18.46875 5.179688 19.449219 6.089844 20.011719 C 6.578125 20.308594 7.117188 20.453125 7.648438 20.453125 C 8.652344 20.453125 9.628906 19.949219 10.191406 19.035156 C 10.492188 18.550781 10.632812 18.011719 10.632812 17.476562 C 10.632812 16.476562 10.132812 15.496094 9.21875 14.933594 C 8.730469 14.636719 8.191406 14.492188 7.660156 14.492188 C 6.65625 14.492188 5.679688 14.996094 5.117188 15.910156 L 5.125 15.914062 L 5.132812 15.921875 C 5.691406 15.011719 6.664062 14.511719 7.660156 14.511719 C 8.1875 14.511719 8.722656 14.65625 9.207031 14.953125 C 10.113281 15.511719 10.613281 16.484375 10.613281 17.476562 C 10.613281 18.007812 10.472656 18.542969 10.175781 19.023438 C 9.617188 19.929688 8.644531 20.433594 7.648438 20.433594 C 7.121094 20.433594 6.585938 20.289062 6.101562 19.992188 C 5.195312 19.433594 4.695312 18.460938 4.695312 17.46875 C 4.695312 16.9375 4.835938 16.402344 5.132812 15.921875 Z M 10.363281 19.140625 L 10.355469 19.136719 C 9.757812 20.105469 8.714844 20.644531 7.648438 20.644531 C 7.082031 20.644531 6.507812 20.492188 5.992188 20.171875 C 5.019531 19.574219 4.484375 18.53125 4.484375 17.46875 C 4.484375 16.902344 4.636719 16.328125 4.953125 15.808594 C 5.550781 14.839844 6.59375 14.300781 7.660156 14.300781 C 8.226562 14.300781 8.800781 14.453125 9.316406 14.773438 C 10.289062 15.371094 10.824219 16.414062 10.824219 17.476562 C 10.824219 18.042969 10.671875 18.617188 10.355469 19.136719 L 10.371094 19.144531 C 10.691406 18.625 10.847656 18.046875 10.847656 17.476562 C 10.847656 16.40625 10.304688 15.355469 9.328125 14.753906 C 8.808594 14.433594 8.230469 14.28125 7.660156 14.28125 C 6.585938 14.28125 5.539062 14.820312 4.9375 15.800781 C 4.617188 16.320312 4.464844 16.898438 4.464844 17.46875 C 4.464844 18.539062 5.003906 19.589844 5.980469 20.191406 C 6.5 20.511719 7.078125 20.664062 7.648438 20.664062 C 8.722656 20.664062 9.769531 20.125 10.371094 19.144531 L 10.363281 19.140625 " fill-opacity="1" fill-rule="nonzero"/></g><g clip-path="url(#clip-2)"><path fill="rgb(9.408569%, 65.098572%, 45.489502%)" d="M 4.945312 15.804688 C 4.9375 15.820312 5.117188 15.929688 5.125 15.914062 C 5.984375 14.519531 7.816406 14.085938 9.210938 14.941406 C 10.605469 15.800781 11.042969 17.636719 10.183594 19.03125 C 10.175781 19.046875 10.355469 19.15625 10.363281 19.140625 C 11.285156 17.648438 10.816406 15.683594 9.324219 14.761719 C 7.828125 13.84375 5.863281 14.3125 4.945312 15.804688 " fill-opacity="1" fill-rule="nonzero"/><path fill="rgb(9.408569%, 65.098572%, 45.489502%)" d="M 4.945312 15.804688 L 4.9375 15.800781 C 4.933594 15.800781 4.933594 15.804688 4.933594 15.804688 C 4.933594 15.8125 4.9375 15.8125 4.9375 15.816406 C 4.941406 15.820312 4.945312 15.824219 4.949219 15.828125 C 4.96875 15.847656 5.007812 15.871094 5.039062 15.890625 C 5.058594 15.898438 5.074219 15.910156 5.085938 15.914062 C 5.09375 15.917969 5.101562 15.921875 5.105469 15.921875 C 5.113281 15.925781 5.117188 15.925781 5.121094 15.925781 C 5.125 15.925781 5.125 15.925781 5.128906 15.925781 C 5.128906 15.925781 5.132812 15.921875 5.132812 15.921875 C 5.691406 15.011719 6.664062 14.511719 7.660156 14.511719 C 8.1875 14.511719 8.722656 14.65625 9.207031 14.953125 C 10.113281 15.511719 10.613281 16.484375 10.613281 17.476562 C 10.613281 18.007812 10.472656 18.542969 10.175781 19.023438 C 10.171875 19.027344 10.171875 19.027344 10.171875 19.03125 C 10.171875 19.035156 10.175781 19.039062 10.175781 19.042969 C 10.179688 19.046875 10.183594 19.050781 10.191406 19.054688 C 10.210938 19.070312 10.246094 19.097656 10.277344 19.117188 C 10.296875 19.125 10.3125 19.136719 10.324219 19.140625 C 10.332031 19.144531 10.339844 19.148438 10.34375 19.148438 C 10.351562 19.152344 10.355469 19.152344 10.359375 19.152344 C 10.363281 19.152344 10.363281 19.152344 10.367188 19.152344 C 10.367188 19.152344 10.371094 19.148438 10.371094 19.148438 L 10.371094 19.144531 C 10.691406 18.625 10.847656 18.046875 10.847656 17.476562 C 10.847656 16.40625 10.304688 15.355469 9.328125 14.753906 C 8.808594 14.433594 8.230469 14.28125 7.660156 14.28125 C 6.585938 14.28125 5.539062 14.820312 4.9375 15.800781 L 4.953125 15.808594 C 5.550781 14.839844 6.59375 14.300781 7.660156 14.300781 C 8.226562 14.300781 8.800781 14.453125 9.316406 14.773438 C 10.289062 15.371094 10.824219 16.414062 10.824219 17.476562 C 10.824219 18.042969 10.671875 18.617188 10.355469 19.136719 L 10.363281 19.140625 L 10.355469 19.136719 L 10.363281 19.140625 L 10.359375 19.132812 L 10.355469 19.136719 L 10.363281 19.140625 L 10.359375 19.132812 L 10.359375 19.136719 L 10.359375 19.132812 L 10.359375 19.136719 L 10.359375 19.132812 C 10.359375 19.132812 10.355469 19.128906 10.347656 19.128906 C 10.328125 19.121094 10.285156 19.097656 10.253906 19.074219 C 10.234375 19.0625 10.21875 19.054688 10.207031 19.042969 C 10.203125 19.039062 10.199219 19.035156 10.195312 19.03125 L 10.195312 19.027344 L 10.1875 19.03125 L 10.195312 19.03125 L 10.195312 19.027344 L 10.1875 19.03125 L 10.195312 19.03125 L 10.1875 19.03125 L 10.191406 19.035156 L 10.195312 19.03125 L 10.1875 19.03125 L 10.191406 19.035156 C 10.492188 18.550781 10.632812 18.011719 10.632812 17.476562 C 10.632812 16.476562 10.132812 15.496094 9.21875 14.933594 C 8.730469 14.636719 8.191406 14.492188 7.660156 14.492188 C 6.65625 14.492188 5.679688 14.996094 5.117188 15.910156 L 5.125 15.914062 L 5.117188 15.910156 L 5.121094 15.914062 L 5.121094 15.90625 L 5.117188 15.910156 L 5.121094 15.914062 L 5.121094 15.90625 L 5.121094 15.910156 L 5.121094 15.90625 L 5.121094 15.910156 L 5.121094 15.90625 C 5.121094 15.90625 5.117188 15.90625 5.109375 15.902344 C 5.089844 15.894531 5.046875 15.871094 5.015625 15.847656 C 4.996094 15.839844 4.980469 15.828125 4.96875 15.816406 C 4.964844 15.8125 4.960938 15.808594 4.957031 15.808594 L 4.957031 15.804688 L 4.949219 15.804688 L 4.957031 15.804688 L 4.949219 15.804688 L 4.957031 15.804688 L 4.945312 15.804688 L 4.953125 15.808594 L 4.957031 15.804688 L 4.945312 15.804688 L 4.953125 15.808594 L 4.945312 15.804688 " fill-opacity="1" fill-rule="nonzero"/></g><path fill="rgb(9.408569%, 65.098572%, 45.489502%)" d="M 7.691406 14.644531 L 7.617188 14.644531 L 7.621094 15.050781 L 7.6875 15.050781 L 7.691406 14.644531 " fill-opacity="1" fill-rule="nonzero"/><path fill="rgb(9.408569%, 65.098572%, 45.489502%)" d="M 7.691406 14.644531 L 7.691406 14.632812 L 7.609375 14.632812 L 7.609375 15.0625 L 7.699219 15.0625 L 7.699219 14.632812 L 7.691406 14.632812 L 7.691406 14.644531 L 7.679688 14.644531 L 7.679688 15.042969 L 7.628906 15.042969 L 7.628906 14.652344 L 7.691406 14.652344 L 7.691406 14.644531 L 7.679688 14.644531 L 7.691406 14.644531 " fill-opacity="1" fill-rule="nonzero"/><path fill="rgb(9.408569%, 65.098572%, 45.489502%)" d="M 7.6875 15.101562 L 7.621094 15.101562 C 7.59375 15.101562 7.570312 15.078125 7.570312 15.050781 L 7.570312 14.644531 C 7.570312 14.628906 7.574219 14.617188 7.585938 14.609375 C 7.59375 14.597656 7.605469 14.59375 7.617188 14.59375 L 7.691406 14.59375 C 7.703125 14.59375 7.714844 14.597656 7.726562 14.609375 C 7.734375 14.617188 7.738281 14.628906 7.738281 14.644531 L 7.738281 15.050781 C 7.738281 15.078125 7.714844 15.101562 7.6875 15.101562 " fill-opacity="1" fill-rule="nonzero"/><path fill="rgb(9.408569%, 65.098572%, 45.489502%)" d="M 7.6875 15.101562 L 7.6875 15.089844 L 7.621094 15.089844 C 7.597656 15.089844 7.582031 15.074219 7.582031 15.050781 L 7.582031 14.644531 C 7.582031 14.632812 7.585938 14.621094 7.589844 14.613281 C 7.597656 14.609375 7.609375 14.605469 7.617188 14.605469 L 7.691406 14.605469 C 7.699219 14.605469 7.710938 14.609375 7.71875 14.613281 C 7.722656 14.621094 7.726562 14.632812 7.726562 14.644531 L 7.726562 15.050781 C 7.726562 15.074219 7.710938 15.089844 7.6875 15.089844 L 7.6875 15.113281 C 7.722656 15.113281 7.75 15.085938 7.75 15.050781 L 7.75 14.644531 C 7.75 14.625 7.742188 14.613281 7.730469 14.601562 C 7.722656 14.589844 7.707031 14.582031 7.691406 14.582031 L 7.617188 14.582031 C 7.601562 14.582031 7.585938 14.589844 7.578125 14.601562 C 7.566406 14.613281 7.558594 14.625 7.558594 14.644531 L 7.558594 15.050781 C 7.558594 15.085938 7.585938 15.113281 7.621094 15.113281 L 7.6875 15.113281 L 7.6875 15.101562 " fill-opacity="1" fill-rule="nonzero"/><path fill="rgb(9.408569%, 65.098572%, 45.489502%)" d="M 7.6875 19.894531 L 7.621094 19.894531 L 7.617188 20.300781 L 7.691406 20.300781 L 7.6875 19.894531 " fill-opacity="1" fill-rule="nonzero"/><path fill="rgb(9.408569%, 65.098572%, 45.489502%)" d="M 7.6875 19.894531 L 7.6875 19.882812 L 7.609375 19.882812 L 7.609375 20.3125 L 7.699219 20.3125 L 7.699219 19.882812 L 7.6875 19.882812 L 7.6875 19.894531 L 7.679688 19.894531 L 7.679688 20.292969 L 7.628906 20.292969 L 7.628906 19.902344 L 7.6875 19.902344 L 7.6875 19.894531 L 7.679688 19.894531 L 7.6875 19.894531 " fill-opacity="1" fill-rule="nonzero"/><path fill="rgb(9.408569%, 65.098572%, 45.489502%)" d="M 7.691406 20.351562 L 7.617188 20.351562 C 7.605469 20.351562 7.59375 20.347656 7.585938 20.335938 C 7.574219 20.328125 7.570312 20.316406 7.570312 20.300781 L 7.570312 19.894531 C 7.570312 19.867188 7.59375 19.84375 7.621094 19.84375 L 7.6875 19.84375 C 7.714844 19.84375 7.738281 19.867188 7.738281 19.894531 L 7.738281 20.300781 C 7.738281 20.316406 7.734375 20.328125 7.726562 20.335938 C 7.714844 20.347656 7.703125 20.351562 7.691406 20.351562 " fill-opacity="1" fill-rule="nonzero"/><path fill="rgb(9.408569%, 65.098572%, 45.489502%)" d="M 7.691406 20.351562 L 7.691406 20.339844 L 7.617188 20.339844 C 7.609375 20.339844 7.597656 20.335938 7.589844 20.332031 C 7.585938 20.324219 7.582031 20.3125 7.582031 20.300781 L 7.582031 19.894531 C 7.582031 19.871094 7.597656 19.855469 7.621094 19.855469 L 7.6875 19.855469 C 7.710938 19.855469 7.726562 19.871094 7.726562 19.894531 L 7.726562 20.300781 C 7.726562 20.3125 7.722656 20.324219 7.71875 20.332031 C 7.710938 20.335938 7.699219 20.339844 7.691406 20.339844 L 7.691406 20.363281 C 7.707031 20.363281 7.722656 20.355469 7.730469 20.34375 C 7.742188 20.332031 7.75 20.320312 7.75 20.300781 L 7.75 19.894531 C 7.75 19.859375 7.722656 19.832031 7.6875 19.832031 L 7.621094 19.832031 C 7.585938 19.832031 7.558594 19.859375 7.558594 19.894531 L 7.558594 20.300781 C 7.558594 20.320312 7.566406 20.332031 7.578125 20.34375 C 7.585938 20.355469 7.601562 20.363281 7.617188 20.363281 L 7.691406 20.363281 L 7.691406 20.351562 " fill-opacity="1" fill-rule="nonzero"/><path fill="rgb(9.408569%, 65.098572%, 45.489502%)" d="M 7.003906 14.910156 L 6.9375 14.929688 L 7 15.167969 L 7.066406 15.148438 L 7.003906 14.910156 " fill-opacity="1" fill-rule="nonzero"/><path fill="rgb(9.408569%, 65.098572%, 45.489502%)" d="M 7.003906 14.910156 L 7 14.902344 L 6.925781 14.921875 L 6.992188 15.179688 L 7.078125 15.15625 L 7.007812 14.898438 L 7 14.902344 L 7.003906 14.910156 L 6.992188 14.914062 L 7.054688 15.140625 L 7.007812 15.152344 L 6.953125 14.9375 L 7.003906 14.921875 L 7.003906 14.910156 L 6.992188 14.914062 L 7.003906 14.910156 " fill-opacity="1" fill-rule="nonzero"/><path fill="rgb(9.408569%, 65.098572%, 45.489502%)" d="M 8.308594 19.777344 L 8.242188 19.796875 L 8.304688 20.035156 L 8.371094 20.015625 L 8.308594 19.777344 " fill-opacity="1" fill-rule="nonzero"/><path fill="rgb(9.408569%, 65.098572%, 45.489502%)" d="M 8.308594 19.777344 L 8.304688 19.769531 L 8.230469 19.789062 L 8.300781 20.046875 L 8.382812 20.023438 L 8.316406 19.765625 L 8.304688 19.769531 L 8.308594 19.777344 L 8.296875 19.78125 L 8.355469 20.007812 L 8.3125 20.019531 L 8.253906 19.804688 L 8.308594 19.789062 L 8.308594 19.777344 L 8.296875 19.78125 L 8.308594 19.777344 " fill-opacity="1" fill-rule="nonzero"/><path fill="rgb(9.408569%, 65.098572%, 45.489502%)" d="M 6.363281 15.167969 L 6.304688 15.199219 L 6.484375 15.507812 L 6.539062 15.476562 L 6.363281 15.167969 " fill-opacity="1" fill-rule="nonzero"/><path fill="rgb(9.408569%, 65.098572%, 45.489502%)" d="M 6.363281 15.167969 L 6.355469 15.160156 L 6.289062 15.195312 L 6.480469 15.523438 L 6.554688 15.480469 L 6.367188 15.152344 L 6.355469 15.160156 L 6.363281 15.167969 L 6.351562 15.171875 L 6.523438 15.472656 L 6.488281 15.492188 L 6.320312 15.203125 L 6.367188 15.175781 L 6.363281 15.167969 L 6.351562 15.171875 L 6.363281 15.167969 " fill-opacity="1" fill-rule="nonzero"/><path fill="rgb(9.408569%, 65.098572%, 45.489502%)" d="M 6.332031 15.207031 L 6.492188 15.480469 L 6.511719 15.46875 L 6.355469 15.195312 Z M 6.476562 15.535156 L 6.277344 15.195312 L 6.367188 15.140625 L 6.566406 15.484375 L 6.476562 15.535156 " fill-opacity="1" fill-rule="nonzero"/><path fill="rgb(9.408569%, 65.098572%, 45.489502%)" d="M 6.332031 15.207031 L 6.324219 15.214844 L 6.488281 15.496094 L 6.527344 15.472656 L 6.359375 15.179688 L 6.316406 15.203125 L 6.324219 15.214844 L 6.332031 15.207031 L 6.335938 15.21875 L 6.351562 15.210938 L 6.496094 15.464844 L 6.492188 15.46875 L 6.339844 15.203125 L 6.332031 15.207031 L 6.335938 15.21875 Z M 6.476562 15.535156 L 6.484375 15.53125 L 6.292969 15.199219 L 6.363281 15.15625 L 6.550781 15.480469 L 6.46875 15.527344 L 6.476562 15.535156 L 6.484375 15.53125 L 6.476562 15.535156 L 6.480469 15.542969 L 6.582031 15.488281 L 6.371094 15.125 L 6.261719 15.191406 L 6.472656 15.550781 L 6.480469 15.542969 L 6.476562 15.535156 " fill-opacity="1" fill-rule="nonzero"/><path fill="rgb(9.408569%, 65.098572%, 45.489502%)" d="M 8.824219 19.4375 L 8.769531 19.46875 L 8.945312 19.777344 L 9.003906 19.746094 L 8.824219 19.4375 " fill-opacity="1" fill-rule="nonzero"/><path fill="rgb(9.408569%, 65.098572%, 45.489502%)" d="M 8.824219 19.4375 L 8.820312 19.429688 L 8.753906 19.464844 L 8.941406 19.792969 L 9.019531 19.75 L 8.828125 19.421875 L 8.820312 19.429688 L 8.824219 19.4375 L 8.816406 19.441406 L 8.988281 19.742188 L 8.949219 19.761719 L 8.785156 19.472656 L 8.832031 19.445312 L 8.824219 19.4375 L 8.816406 19.441406 L 8.824219 19.4375 " fill-opacity="1" fill-rule="nonzero"/><path fill="rgb(9.408569%, 65.098572%, 45.489502%)" d="M 8.796875 19.476562 L 8.953125 19.75 L 8.976562 19.738281 L 8.820312 19.464844 Z M 8.941406 19.804688 L 8.742188 19.460938 L 8.832031 19.410156 L 9.03125 19.75 L 8.941406 19.804688 " fill-opacity="1" fill-rule="nonzero"/><path fill="rgb(9.408569%, 65.098572%, 45.489502%)" d="M 8.796875 19.476562 L 8.789062 19.480469 L 8.949219 19.765625 L 8.992188 19.742188 L 8.824219 19.449219 L 8.78125 19.472656 L 8.789062 19.480469 L 8.796875 19.476562 L 8.800781 19.484375 L 8.816406 19.476562 L 8.960938 19.734375 L 8.957031 19.734375 L 8.804688 19.472656 L 8.796875 19.476562 L 8.800781 19.484375 Z M 8.941406 19.804688 L 8.949219 19.800781 L 8.757812 19.464844 L 8.828125 19.425781 L 9.015625 19.746094 L 8.933594 19.796875 L 8.941406 19.804688 L 8.949219 19.800781 L 8.941406 19.804688 L 8.945312 19.8125 L 9.046875 19.753906 L 8.835938 19.394531 L 8.730469 19.457031 L 8.9375 19.820312 L 8.945312 19.8125 L 8.941406 19.804688 " fill-opacity="1" fill-rule="nonzero"/><path fill="rgb(9.408569%, 65.098572%, 45.489502%)" d="M 5.808594 15.582031 L 5.761719 15.628906 L 5.9375 15.800781 L 5.984375 15.753906 L 5.808594 15.582031 " fill-opacity="1" fill-rule="nonzero"/><path fill="rgb(9.408569%, 65.098572%, 45.489502%)" d="M 5.808594 15.582031 L 5.800781 15.574219 L 5.746094 15.628906 L 5.9375 15.816406 L 6 15.753906 L 5.808594 15.566406 L 5.800781 15.574219 L 5.808594 15.582031 L 5.800781 15.589844 L 5.96875 15.753906 L 5.9375 15.785156 L 5.777344 15.628906 L 5.816406 15.589844 L 5.808594 15.582031 L 5.800781 15.589844 L 5.808594 15.582031 " fill-opacity="1" fill-rule="nonzero"/><path fill="rgb(9.408569%, 65.098572%, 45.489502%)" d="M 9.371094 19.144531 L 9.324219 19.191406 L 9.5 19.363281 L 9.546875 19.316406 L 9.371094 19.144531 " fill-opacity="1" fill-rule="nonzero"/><path fill="rgb(9.408569%, 65.098572%, 45.489502%)" d="M 9.371094 19.144531 L 9.367188 19.136719 L 9.308594 19.191406 L 9.5 19.378906 L 9.5625 19.316406 L 9.371094 19.128906 L 9.367188 19.136719 L 9.371094 19.144531 L 9.367188 19.152344 L 9.53125 19.316406 L 9.5 19.347656 L 9.339844 19.191406 L 9.378906 19.152344 L 9.371094 19.144531 L 9.367188 19.152344 L 9.371094 19.144531 " fill-opacity="1" fill-rule="nonzero"/><path fill="rgb(9.408569%, 65.098572%, 45.489502%)" d="M 5.382812 16.125 L 5.351562 16.179688 L 5.65625 16.355469 L 5.691406 16.300781 L 5.382812 16.125 " fill-opacity="1" fill-rule="nonzero"/><path fill="rgb(9.408569%, 65.098572%, 45.489502%)" d="M 5.382812 16.125 L 5.375 16.117188 L 5.335938 16.183594 L 5.660156 16.371094 L 5.703125 16.296875 L 5.378906 16.109375 L 5.375 16.117188 L 5.382812 16.125 L 5.378906 16.132812 L 5.675781 16.304688 L 5.652344 16.34375 L 5.363281 16.175781 L 5.390625 16.128906 L 5.382812 16.125 L 5.378906 16.132812 L 5.382812 16.125 " fill-opacity="1" fill-rule="nonzero"/><path fill="rgb(9.408569%, 65.098572%, 45.489502%)" d="M 5.375 16.171875 L 5.652344 16.332031 L 5.664062 16.308594 L 5.390625 16.148438 Z M 5.664062 16.382812 L 5.324219 16.1875 L 5.375 16.097656 L 5.71875 16.292969 L 5.664062 16.382812 " fill-opacity="1" fill-rule="nonzero"/><path fill="rgb(9.408569%, 65.098572%, 45.489502%)" d="M 5.375 16.171875 L 5.371094 16.183594 L 5.65625 16.34375 L 5.675781 16.304688 L 5.386719 16.136719 L 5.363281 16.175781 L 5.371094 16.183594 L 5.375 16.171875 L 5.386719 16.179688 L 5.394531 16.164062 L 5.648438 16.3125 L 5.648438 16.316406 L 5.382812 16.164062 L 5.375 16.171875 L 5.386719 16.179688 Z M 5.664062 16.382812 L 5.671875 16.375 L 5.335938 16.183594 L 5.378906 16.109375 L 5.703125 16.296875 L 5.65625 16.378906 L 5.664062 16.382812 L 5.671875 16.375 L 5.664062 16.382812 L 5.675781 16.390625 L 5.730469 16.289062 L 5.371094 16.082031 L 5.308594 16.191406 L 5.667969 16.398438 L 5.675781 16.390625 L 5.664062 16.382812 " fill-opacity="1" fill-rule="nonzero"/><path fill="rgb(9.408569%, 65.098572%, 45.489502%)" d="M 9.652344 18.589844 L 9.617188 18.644531 L 9.925781 18.820312 L 9.960938 18.765625 L 9.652344 18.589844 " fill-opacity="1" fill-rule="nonzero"/><path fill="rgb(9.408569%, 65.098572%, 45.489502%)" d="M 9.652344 18.589844 L 9.640625 18.582031 L 9.605469 18.648438 L 9.929688 18.835938 L 9.972656 18.761719 L 9.648438 18.574219 L 9.640625 18.582031 L 9.652344 18.589844 L 9.644531 18.597656 L 9.945312 18.769531 L 9.921875 18.808594 L 9.632812 18.640625 L 9.660156 18.59375 L 9.652344 18.589844 L 9.644531 18.597656 L 9.652344 18.589844 " fill-opacity="1" fill-rule="nonzero"/><path fill="rgb(9.408569%, 65.098572%, 45.489502%)" d="M 9.644531 18.636719 L 9.917969 18.796875 L 9.933594 18.773438 L 9.65625 18.613281 Z M 9.933594 18.847656 L 9.589844 18.652344 L 9.644531 18.5625 L 9.984375 18.757812 L 9.933594 18.847656 " fill-opacity="1" fill-rule="nonzero"/><path fill="rgb(9.408569%, 65.098572%, 45.489502%)" d="M 9.644531 18.636719 L 9.640625 18.644531 L 9.921875 18.808594 L 9.945312 18.769531 L 9.65625 18.601562 L 9.632812 18.640625 L 9.640625 18.644531 L 9.644531 18.636719 L 9.65625 18.640625 L 9.660156 18.628906 L 9.917969 18.777344 L 9.914062 18.78125 L 9.652344 18.628906 L 9.644531 18.636719 L 9.65625 18.640625 Z M 9.933594 18.847656 L 9.9375 18.839844 L 9.605469 18.648438 L 9.648438 18.574219 L 9.972656 18.761719 L 9.925781 18.84375 L 9.933594 18.847656 L 9.9375 18.839844 L 9.933594 18.847656 L 9.941406 18.855469 L 10 18.753906 L 9.640625 18.546875 L 9.578125 18.65625 L 9.9375 18.863281 L 9.941406 18.855469 L 9.933594 18.847656 " fill-opacity="1" fill-rule="nonzero"/><path fill="rgb(9.408569%, 65.098572%, 45.489502%)" d="M 5.109375 16.757812 L 5.09375 16.820312 L 5.332031 16.886719 L 5.347656 16.820312 L 5.109375 16.757812 " fill-opacity="1" fill-rule="nonzero"/><path fill="rgb(9.408569%, 65.098572%, 45.489502%)" d="M 5.109375 16.757812 L 5.101562 16.753906 L 5.082031 16.828125 L 5.339844 16.898438 L 5.359375 16.8125 L 5.101562 16.742188 L 5.101562 16.753906 L 5.109375 16.757812 L 5.109375 16.765625 L 5.335938 16.828125 L 5.324219 16.871094 L 5.105469 16.8125 L 5.121094 16.757812 L 5.109375 16.757812 L 5.109375 16.765625 L 5.109375 16.757812 " fill-opacity="1" fill-rule="nonzero"/><path fill="rgb(9.408569%, 65.098572%, 45.489502%)" d="M 9.976562 18.058594 L 9.960938 18.125 L 10.199219 18.1875 L 10.214844 18.125 L 9.976562 18.058594 " fill-opacity="1" fill-rule="nonzero"/><path fill="rgb(9.408569%, 65.098572%, 45.489502%)" d="M 9.976562 18.058594 L 9.96875 18.058594 L 9.949219 18.132812 L 10.207031 18.199219 L 10.226562 18.117188 L 9.96875 18.046875 L 9.96875 18.058594 L 9.976562 18.058594 L 9.976562 18.070312 L 10.203125 18.132812 L 10.191406 18.175781 L 9.972656 18.117188 L 9.988281 18.0625 L 9.976562 18.058594 L 9.976562 18.070312 L 9.976562 18.058594 " fill-opacity="1" fill-rule="nonzero"/><g clip-path="url(#clip-3)"><path fill="rgb(9.408569%, 65.098572%, 45.489502%)" d="M 4.824219 17.4375 L 4.824219 17.507812 L 5.234375 17.507812 L 5.234375 17.4375 L 4.824219 17.4375 " fill-opacity="1" fill-rule="nonzero"/><path fill="rgb(9.408569%, 65.098572%, 45.489502%)" d="M 4.824219 17.4375 L 4.8125 17.4375 L 4.8125 17.519531 L 5.246094 17.515625 L 5.246094 17.429688 L 4.8125 17.425781 L 4.8125 17.4375 L 4.824219 17.4375 L 4.824219 17.449219 L 5.222656 17.449219 L 5.222656 17.496094 L 4.835938 17.496094 L 4.835938 17.4375 L 4.824219 17.4375 L 4.824219 17.449219 L 4.824219 17.4375 " fill-opacity="1" fill-rule="nonzero"/><path fill="rgb(9.408569%, 65.098572%, 45.489502%)" d="M 4.824219 17.558594 C 4.8125 17.558594 4.796875 17.550781 4.789062 17.542969 C 4.78125 17.535156 4.773438 17.519531 4.773438 17.507812 L 4.773438 17.4375 C 4.773438 17.425781 4.78125 17.410156 4.789062 17.402344 C 4.796875 17.394531 4.8125 17.386719 4.824219 17.386719 L 5.234375 17.390625 C 5.261719 17.390625 5.285156 17.410156 5.285156 17.4375 L 5.285156 17.507812 C 5.285156 17.535156 5.261719 17.554688 5.234375 17.554688 L 4.824219 17.558594 " fill-opacity="1" fill-rule="nonzero"/><path fill="rgb(9.408569%, 65.098572%, 45.489502%)" d="M 4.824219 17.558594 L 4.824219 17.546875 C 4.8125 17.546875 4.804688 17.542969 4.796875 17.535156 C 4.789062 17.527344 4.785156 17.519531 4.785156 17.507812 L 4.785156 17.4375 C 4.785156 17.425781 4.789062 17.417969 4.796875 17.410156 C 4.804688 17.402344 4.8125 17.398438 4.824219 17.398438 L 5.234375 17.398438 C 5.253906 17.398438 5.273438 17.417969 5.273438 17.4375 L 5.273438 17.507812 C 5.273438 17.527344 5.253906 17.546875 5.234375 17.546875 L 4.824219 17.546875 L 4.824219 17.566406 L 5.234375 17.566406 C 5.265625 17.566406 5.292969 17.539062 5.292969 17.507812 L 5.292969 17.4375 C 5.292969 17.40625 5.265625 17.378906 5.234375 17.378906 L 4.824219 17.378906 C 4.808594 17.378906 4.792969 17.382812 4.78125 17.394531 C 4.769531 17.40625 4.765625 17.421875 4.765625 17.4375 L 4.765625 17.507812 C 4.765625 17.523438 4.769531 17.539062 4.78125 17.550781 C 4.792969 17.5625 4.808594 17.566406 4.824219 17.566406 L 4.824219 17.558594 " fill-opacity="1" fill-rule="nonzero"/></g><path fill="rgb(9.408569%, 65.098572%, 45.489502%)" d="M 10.074219 17.4375 L 10.074219 17.507812 L 10.484375 17.507812 L 10.484375 17.4375 L 10.074219 17.4375 " fill-opacity="1" fill-rule="nonzero"/><path fill="rgb(9.408569%, 65.098572%, 45.489502%)" d="M 10.074219 17.4375 L 10.0625 17.4375 L 10.0625 17.515625 L 10.496094 17.519531 L 10.496094 17.425781 L 10.0625 17.429688 L 10.0625 17.4375 L 10.074219 17.4375 L 10.074219 17.449219 L 10.472656 17.449219 L 10.472656 17.496094 L 10.085938 17.496094 L 10.085938 17.4375 L 10.074219 17.4375 L 10.074219 17.449219 L 10.074219 17.4375 " fill-opacity="1" fill-rule="nonzero"/><path fill="rgb(9.408569%, 65.098572%, 45.489502%)" d="M 10.484375 17.558594 L 10.074219 17.554688 C 10.046875 17.554688 10.023438 17.535156 10.023438 17.507812 L 10.023438 17.4375 C 10.023438 17.410156 10.046875 17.390625 10.074219 17.390625 L 10.484375 17.386719 C 10.496094 17.386719 10.511719 17.394531 10.519531 17.402344 C 10.527344 17.410156 10.535156 17.425781 10.535156 17.4375 L 10.535156 17.507812 C 10.535156 17.519531 10.527344 17.535156 10.519531 17.542969 C 10.511719 17.550781 10.496094 17.558594 10.484375 17.558594 " fill-opacity="1" fill-rule="nonzero"/><path fill="rgb(9.408569%, 65.098572%, 45.489502%)" d="M 10.484375 17.558594 L 10.484375 17.546875 L 10.074219 17.546875 C 10.054688 17.546875 10.035156 17.527344 10.035156 17.507812 L 10.035156 17.4375 C 10.035156 17.417969 10.054688 17.398438 10.074219 17.398438 L 10.484375 17.398438 L 10.484375 17.386719 L 10.484375 17.398438 C 10.496094 17.398438 10.503906 17.402344 10.511719 17.410156 C 10.519531 17.417969 10.523438 17.425781 10.523438 17.4375 L 10.523438 17.507812 C 10.523438 17.519531 10.519531 17.527344 10.511719 17.535156 C 10.503906 17.542969 10.496094 17.546875 10.484375 17.546875 L 10.484375 17.566406 C 10.5 17.566406 10.515625 17.5625 10.527344 17.550781 C 10.539062 17.539062 10.542969 17.523438 10.542969 17.507812 L 10.542969 17.4375 C 10.542969 17.421875 10.539062 17.40625 10.527344 17.394531 C 10.515625 17.382812 10.5 17.378906 10.484375 17.378906 L 10.074219 17.378906 C 10.042969 17.378906 10.015625 17.40625 10.015625 17.4375 L 10.015625 17.507812 C 10.015625 17.539062 10.042969 17.566406 10.074219 17.566406 L 10.484375 17.566406 L 10.484375 17.558594 " fill-opacity="1" fill-rule="nonzero"/><path fill="rgb(9.408569%, 65.098572%, 45.489502%)" d="M 8.304688 14.910156 L 8.371094 14.929688 L 8.308594 15.167969 L 8.242188 15.148438 L 8.304688 14.910156 " fill-opacity="1" fill-rule="nonzero"/><path fill="rgb(9.408569%, 65.098572%, 45.489502%)" d="M 8.304688 14.910156 L 8.304688 14.921875 L 8.355469 14.9375 L 8.300781 15.152344 L 8.253906 15.140625 L 8.316406 14.914062 L 8.304688 14.910156 L 8.304688 14.921875 L 8.304688 14.910156 L 8.296875 14.910156 L 8.230469 15.15625 L 8.316406 15.179688 L 8.382812 14.921875 L 8.300781 14.898438 L 8.296875 14.910156 L 8.304688 14.910156 " fill-opacity="1" fill-rule="nonzero"/><path fill="rgb(9.408569%, 65.098572%, 45.489502%)" d="M 7 19.777344 L 7.066406 19.796875 L 7.003906 20.035156 L 6.9375 20.015625 L 7 19.777344 " fill-opacity="1" fill-rule="nonzero"/><path fill="rgb(9.408569%, 65.098572%, 45.489502%)" d="M 7 19.777344 L 7 19.789062 L 7.054688 19.804688 L 6.996094 20.019531 L 6.953125 20.007812 L 7.011719 19.78125 L 7 19.777344 L 7 19.789062 L 7 19.777344 L 6.992188 19.777344 L 6.925781 20.023438 L 7.007812 20.046875 L 7.078125 19.789062 L 6.992188 19.765625 L 6.992188 19.777344 L 7 19.777344 " fill-opacity="1" fill-rule="nonzero"/><path fill="rgb(9.408569%, 65.098572%, 45.489502%)" d="M 8.945312 15.167969 L 9.003906 15.199219 L 8.824219 15.507812 L 8.769531 15.476562 L 8.945312 15.167969 " fill-opacity="1" fill-rule="nonzero"/><path fill="rgb(9.408569%, 65.098572%, 45.489502%)" d="M 8.945312 15.167969 L 8.941406 15.175781 L 8.988281 15.203125 L 8.820312 15.492188 L 8.785156 15.472656 L 8.957031 15.171875 L 8.945312 15.167969 L 8.941406 15.175781 L 8.945312 15.167969 L 8.9375 15.164062 L 8.753906 15.480469 L 8.828125 15.523438 L 9.019531 15.195312 L 8.941406 15.152344 L 8.9375 15.164062 L 8.945312 15.167969 " fill-opacity="1" fill-rule="nonzero"/><path fill="rgb(9.408569%, 65.098572%, 45.489502%)" d="M 8.796875 15.46875 L 8.820312 15.480469 L 8.976562 15.207031 L 8.953125 15.195312 Z M 8.832031 15.535156 L 8.742188 15.484375 L 8.941406 15.140625 L 9.03125 15.195312 L 8.832031 15.535156 " fill-opacity="1" fill-rule="nonzero"/><path fill="rgb(9.408569%, 65.098572%, 45.489502%)" d="M 8.796875 15.46875 L 8.792969 15.476562 L 8.824219 15.496094 L 8.992188 15.203125 L 8.949219 15.179688 L 8.78125 15.472656 L 8.792969 15.476562 L 8.796875 15.46875 L 8.804688 15.472656 L 8.957031 15.210938 L 8.960938 15.210938 L 8.816406 15.46875 L 8.800781 15.460938 L 8.796875 15.46875 L 8.804688 15.472656 Z M 8.832031 15.535156 L 8.839844 15.527344 L 8.757812 15.480469 L 8.945312 15.15625 L 9.015625 15.199219 L 8.824219 15.53125 L 8.832031 15.535156 L 8.839844 15.527344 L 8.832031 15.535156 L 8.84375 15.539062 L 9.046875 15.191406 L 8.9375 15.125 L 8.730469 15.488281 L 8.835938 15.550781 L 8.84375 15.539062 L 8.832031 15.535156 " fill-opacity="1" fill-rule="nonzero"/><path fill="rgb(9.408569%, 65.098572%, 45.489502%)" d="M 6.484375 19.4375 L 6.539062 19.46875 L 6.363281 19.777344 L 6.304688 19.746094 L 6.484375 19.4375 " fill-opacity="1" fill-rule="nonzero"/><path fill="rgb(9.408569%, 65.098572%, 45.489502%)" d="M 6.484375 19.4375 L 6.476562 19.445312 L 6.523438 19.472656 L 6.359375 19.761719 L 6.320312 19.742188 L 6.492188 19.441406 L 6.484375 19.4375 L 6.476562 19.445312 L 6.484375 19.4375 L 6.472656 19.433594 L 6.289062 19.75 L 6.367188 19.792969 L 6.554688 19.464844 L 6.480469 19.421875 L 6.472656 19.433594 L 6.484375 19.4375 " fill-opacity="1" fill-rule="nonzero"/><path fill="rgb(9.408569%, 65.098572%, 45.489502%)" d="M 6.332031 19.738281 L 6.355469 19.75 L 6.511719 19.476562 L 6.492188 19.464844 Z M 6.367188 19.804688 L 6.277344 19.75 L 6.476562 19.410156 L 6.566406 19.460938 L 6.367188 19.804688 " fill-opacity="1" fill-rule="nonzero"/><path fill="rgb(9.408569%, 65.098572%, 45.489502%)" d="M 6.332031 19.738281 L 6.328125 19.746094 L 6.359375 19.765625 L 6.527344 19.472656 L 6.488281 19.449219 L 6.316406 19.742188 L 6.328125 19.746094 L 6.332031 19.738281 L 6.339844 19.742188 L 6.492188 19.476562 L 6.496094 19.480469 L 6.351562 19.734375 L 6.335938 19.726562 L 6.332031 19.738281 L 6.339844 19.742188 Z M 6.367188 19.804688 L 6.375 19.796875 L 6.292969 19.746094 L 6.480469 19.425781 L 6.550781 19.464844 L 6.359375 19.800781 L 6.367188 19.804688 L 6.375 19.796875 L 6.367188 19.804688 L 6.378906 19.808594 L 6.582031 19.457031 L 6.472656 19.394531 L 6.261719 19.753906 L 6.371094 19.820312 L 6.378906 19.808594 L 6.367188 19.804688 " fill-opacity="1" fill-rule="nonzero"/><path fill="rgb(9.408569%, 65.098572%, 45.489502%)" d="M 9.5 15.582031 L 9.546875 15.628906 L 9.371094 15.800781 L 9.324219 15.753906 L 9.5 15.582031 " fill-opacity="1" fill-rule="nonzero"/><path fill="rgb(9.408569%, 65.098572%, 45.489502%)" d="M 9.5 15.582031 L 9.492188 15.589844 L 9.53125 15.628906 L 9.371094 15.785156 L 9.339844 15.753906 L 9.507812 15.589844 L 9.5 15.582031 L 9.492188 15.589844 L 9.5 15.582031 L 9.492188 15.574219 L 9.308594 15.753906 L 9.371094 15.816406 L 9.5625 15.628906 L 9.5 15.566406 L 9.492188 15.574219 L 9.5 15.582031 " fill-opacity="1" fill-rule="nonzero"/><path fill="rgb(9.408569%, 65.098572%, 45.489502%)" d="M 5.9375 19.144531 L 5.984375 19.191406 L 5.808594 19.363281 L 5.761719 19.316406 L 5.9375 19.144531 " fill-opacity="1" fill-rule="nonzero"/><path fill="rgb(9.408569%, 65.098572%, 45.489502%)" d="M 5.9375 19.144531 L 5.929688 19.152344 L 5.96875 19.191406 L 5.808594 19.347656 L 5.777344 19.316406 L 5.945312 19.152344 L 5.9375 19.144531 L 5.929688 19.152344 L 5.9375 19.144531 L 5.929688 19.136719 L 5.746094 19.316406 L 5.808594 19.378906 L 6 19.191406 L 5.9375 19.128906 L 5.929688 19.136719 L 5.9375 19.144531 " fill-opacity="1" fill-rule="nonzero"/><path fill="rgb(9.408569%, 65.098572%, 45.489502%)" d="M 9.925781 16.125 L 9.960938 16.179688 L 9.652344 16.355469 L 9.617188 16.300781 L 9.925781 16.125 " fill-opacity="1" fill-rule="nonzero"/><path fill="rgb(9.408569%, 65.098572%, 45.489502%)" d="M 9.925781 16.125 L 9.917969 16.128906 L 9.945312 16.175781 L 9.65625 16.34375 L 9.632812 16.304688 L 9.929688 16.132812 L 9.925781 16.125 L 9.917969 16.128906 L 9.925781 16.125 L 9.921875 16.113281 L 9.605469 16.296875 L 9.648438 16.371094 L 9.972656 16.183594 L 9.929688 16.109375 L 9.921875 16.113281 L 9.925781 16.125 " fill-opacity="1" fill-rule="nonzero"/><path fill="rgb(9.408569%, 65.098572%, 45.489502%)" d="M 9.644531 16.308594 L 9.65625 16.332031 L 9.933594 16.171875 L 9.917969 16.148438 Z M 9.644531 16.382812 L 9.589844 16.292969 L 9.933594 16.097656 L 9.984375 16.1875 L 9.644531 16.382812 " fill-opacity="1" fill-rule="nonzero"/><path fill="rgb(9.408569%, 65.098572%, 45.489502%)" d="M 9.644531 16.308594 L 9.636719 16.3125 L 9.65625 16.34375 L 9.945312 16.175781 L 9.921875 16.136719 L 9.632812 16.304688 L 9.636719 16.3125 L 9.644531 16.308594 L 9.652344 16.316406 L 9.914062 16.164062 L 9.917969 16.167969 L 9.660156 16.316406 L 9.65625 16.304688 L 9.644531 16.308594 L 9.652344 16.316406 Z M 9.644531 16.382812 L 9.652344 16.378906 L 9.605469 16.296875 L 9.929688 16.109375 L 9.972656 16.183594 L 9.636719 16.375 L 9.644531 16.382812 L 9.652344 16.378906 L 9.644531 16.382812 L 9.648438 16.394531 L 10 16.191406 L 9.9375 16.082031 L 9.578125 16.289062 L 9.640625 16.398438 L 9.648438 16.394531 L 9.644531 16.382812 " fill-opacity="1" fill-rule="nonzero"/><path fill="rgb(9.408569%, 65.098572%, 45.489502%)" d="M 5.65625 18.589844 L 5.691406 18.644531 L 5.382812 18.820312 L 5.351562 18.765625 L 5.65625 18.589844 " fill-opacity="1" fill-rule="nonzero"/><path fill="rgb(9.408569%, 65.098572%, 45.489502%)" d="M 5.65625 18.589844 L 5.648438 18.59375 L 5.675781 18.640625 L 5.386719 18.808594 L 5.363281 18.769531 L 5.664062 18.597656 L 5.65625 18.589844 L 5.648438 18.59375 L 5.65625 18.589844 L 5.652344 18.578125 L 5.335938 18.761719 L 5.378906 18.835938 L 5.703125 18.648438 L 5.660156 18.574219 L 5.652344 18.578125 L 5.65625 18.589844 " fill-opacity="1" fill-rule="nonzero"/><path fill="rgb(9.408569%, 65.098572%, 45.489502%)" d="M 5.375 18.773438 L 5.390625 18.796875 L 5.664062 18.636719 L 5.652344 18.613281 Z M 5.375 18.847656 L 5.324219 18.757812 L 5.664062 18.5625 L 5.71875 18.652344 L 5.375 18.847656 " fill-opacity="1" fill-rule="nonzero"/><path fill="rgb(9.408569%, 65.098572%, 45.489502%)" d="M 5.375 18.773438 L 5.367188 18.777344 L 5.386719 18.808594 L 5.675781 18.640625 L 5.65625 18.601562 L 5.363281 18.769531 L 5.367188 18.777344 L 5.375 18.773438 L 5.382812 18.78125 L 5.648438 18.628906 L 5.648438 18.632812 L 5.394531 18.78125 L 5.386719 18.765625 L 5.375 18.773438 L 5.382812 18.78125 Z M 5.375 18.847656 L 5.382812 18.84375 L 5.335938 18.761719 L 5.660156 18.574219 L 5.703125 18.648438 L 5.371094 18.839844 L 5.375 18.847656 L 5.382812 18.84375 L 5.375 18.847656 L 5.378906 18.859375 L 5.730469 18.65625 L 5.667969 18.546875 L 5.308594 18.753906 L 5.371094 18.863281 L 5.378906 18.859375 L 5.375 18.847656 " fill-opacity="1" fill-rule="nonzero"/><path fill="rgb(9.408569%, 65.098572%, 45.489502%)" d="M 10.199219 16.757812 L 10.214844 16.820312 L 9.976562 16.886719 L 9.960938 16.820312 L 10.199219 16.757812 " fill-opacity="1" fill-rule="nonzero"/><path fill="rgb(9.408569%, 65.098572%, 45.489502%)" d="M 10.199219 16.757812 L 10.1875 16.757812 L 10.203125 16.8125 L 9.984375 16.871094 L 9.972656 16.828125 L 10.199219 16.765625 L 10.199219 16.757812 L 10.1875 16.757812 L 10.199219 16.757812 L 10.195312 16.746094 L 9.949219 16.8125 L 9.96875 16.898438 L 10.226562 16.828125 L 10.207031 16.742188 L 10.195312 16.746094 L 10.199219 16.757812 " fill-opacity="1" fill-rule="nonzero"/><path fill="rgb(9.408569%, 65.098572%, 45.489502%)" d="M 5.332031 18.058594 L 5.347656 18.125 L 5.109375 18.1875 L 5.09375 18.125 L 5.332031 18.058594 " fill-opacity="1" fill-rule="nonzero"/><path fill="rgb(9.408569%, 65.098572%, 45.489502%)" d="M 5.332031 18.058594 L 5.320312 18.0625 L 5.335938 18.117188 L 5.117188 18.175781 L 5.105469 18.132812 L 5.332031 18.070312 L 5.332031 18.058594 L 5.320312 18.0625 L 5.332031 18.058594 L 5.328125 18.050781 L 5.082031 18.117188 L 5.101562 18.199219 L 5.359375 18.132812 L 5.339844 18.046875 L 5.328125 18.050781 L 5.332031 18.058594 " fill-opacity="1" fill-rule="nonzero"/><path fill="rgb(9.408569%, 65.098572%, 45.489502%)" d="M 7.871094 17.472656 C 7.871094 17.390625 7.804688 17.328125 7.726562 17.328125 C 7.644531 17.328125 7.578125 17.390625 7.578125 17.472656 C 7.578125 17.554688 7.644531 17.617188 7.726562 17.617188 C 7.804688 17.617188 7.871094 17.554688 7.871094 17.472656 " fill-opacity="1" fill-rule="nonzero"/><path fill="rgb(9.408569%, 65.098572%, 45.489502%)" d="M 7.871094 17.472656 L 7.882812 17.472656 C 7.882812 17.386719 7.8125 17.316406 7.726562 17.316406 C 7.640625 17.316406 7.570312 17.386719 7.570312 17.472656 C 7.570312 17.558594 7.640625 17.628906 7.726562 17.628906 C 7.8125 17.628906 7.882812 17.558594 7.882812 17.472656 L 7.859375 17.472656 C 7.859375 17.511719 7.84375 17.542969 7.820312 17.566406 C 7.796875 17.59375 7.761719 17.609375 7.726562 17.609375 C 7.6875 17.609375 7.652344 17.59375 7.628906 17.566406 C 7.605469 17.542969 7.589844 17.511719 7.589844 17.472656 C 7.589844 17.433594 7.605469 17.402344 7.628906 17.378906 C 7.652344 17.351562 7.6875 17.335938 7.726562 17.335938 C 7.761719 17.335938 7.796875 17.351562 7.820312 17.378906 C 7.84375 17.402344 7.859375 17.433594 7.859375 17.472656 L 7.871094 17.472656 " fill-opacity="1" fill-rule="nonzero"/><g clip-path="url(#clip-4)"><path fill="rgb(9.408569%, 65.098572%, 45.489502%)" d="M 26.75 17.46875 C 26.75 19.429688 25.160156 21.019531 23.199219 21.019531 C 21.238281 21.019531 19.648438 19.429688 19.648438 17.46875 C 19.648438 15.507812 21.238281 13.921875 23.199219 13.921875 C 25.160156 13.921875 26.75 15.507812 26.75 17.46875 " fill-opacity="1" fill-rule="nonzero"/><path fill="rgb(9.408569%, 65.098572%, 45.489502%)" d="M 26.75 17.46875 L 26.671875 17.46875 C 26.671875 18.429688 26.285156 19.296875 25.65625 19.925781 C 25.027344 20.554688 24.160156 20.941406 23.199219 20.941406 C 22.242188 20.941406 21.375 20.554688 20.746094 19.925781 C 20.117188 19.296875 19.726562 18.429688 19.726562 17.46875 C 19.726562 16.511719 20.117188 15.644531 20.746094 15.015625 C 21.375 14.386719 22.242188 14 23.199219 14 C 24.160156 14 25.027344 14.386719 25.65625 15.015625 C 26.285156 15.644531 26.671875 16.511719 26.671875 17.46875 L 26.828125 17.46875 C 26.828125 16.46875 26.421875 15.5625 25.765625 14.90625 C 25.109375 14.25 24.203125 13.84375 23.199219 13.84375 C 22.199219 13.84375 21.292969 14.25 20.636719 14.90625 C 19.976562 15.5625 19.570312 16.46875 19.570312 17.46875 C 19.570312 18.472656 19.976562 19.378906 20.636719 20.035156 C 21.292969 20.691406 22.199219 21.097656 23.199219 21.097656 C 24.203125 21.097656 25.109375 20.691406 25.765625 20.035156 C 26.421875 19.378906 26.828125 18.472656 26.828125 17.46875 L 26.75 17.46875 " fill-opacity="1" fill-rule="nonzero"/></g><g clip-path="url(#clip-5)"><path fill="rgb(100%, 100%, 100%)" d="M 26.191406 17.46875 C 26.191406 19.121094 24.851562 20.460938 23.199219 20.460938 C 21.546875 20.460938 20.210938 19.121094 20.210938 17.46875 C 20.210938 15.820312 21.546875 14.480469 23.199219 14.480469 C 24.851562 14.480469 26.191406 15.820312 26.191406 17.46875 " fill-opacity="1" fill-rule="nonzero"/><path fill="rgb(9.408569%, 65.098572%, 45.489502%)" d="M 26.191406 17.46875 L 26.113281 17.46875 C 26.113281 18.273438 25.789062 19.003906 25.261719 19.53125 C 24.734375 20.058594 24.003906 20.382812 23.199219 20.382812 C 22.394531 20.382812 21.667969 20.058594 21.140625 19.53125 C 20.613281 19.003906 20.289062 18.273438 20.289062 17.46875 C 20.289062 16.664062 20.613281 15.9375 21.140625 15.410156 C 21.667969 14.882812 22.394531 14.558594 23.199219 14.558594 C 24.003906 14.558594 24.734375 14.882812 25.261719 15.410156 C 25.789062 15.9375 26.113281 16.664062 26.113281 17.46875 L 26.269531 17.46875 C 26.269531 16.625 25.925781 15.855469 25.371094 15.300781 C 24.816406 14.746094 24.046875 14.402344 23.199219 14.402344 C 22.351562 14.402344 21.585938 14.746094 21.03125 15.300781 C 20.476562 15.855469 20.132812 16.625 20.132812 17.46875 C 20.132812 18.316406 20.476562 19.085938 21.03125 19.640625 C 21.585938 20.195312 22.351562 20.539062 23.199219 20.539062 C 24.046875 20.539062 24.816406 20.195312 25.371094 19.640625 C 25.925781 19.085938 26.269531 18.316406 26.269531 17.46875 L 26.191406 17.46875 " fill-opacity="1" fill-rule="nonzero"/></g><path fill="rgb(100%, 100%, 100%)" d="M 25.761719 15.925781 L 25.296875 16.203125 " fill-opacity="1" fill-rule="nonzero"/><path fill="rgb(9.408569%, 65.098572%, 45.489502%)" d="M 25.71875 15.855469 L 25.253906 16.136719 C 25.21875 16.160156 25.207031 16.207031 25.230469 16.246094 C 25.25 16.28125 25.300781 16.292969 25.335938 16.273438 L 25.800781 15.992188 C 25.839844 15.96875 25.851562 15.921875 25.828125 15.882812 C 25.804688 15.847656 25.757812 15.835938 25.71875 15.855469 " fill-opacity="1" fill-rule="nonzero"/><path fill="rgb(100%, 100%, 100%)" d="M 21.105469 18.734375 L 20.640625 19.015625 " fill-opacity="1" fill-rule="nonzero"/><path fill="rgb(9.408569%, 65.098572%, 45.489502%)" d="M 21.066406 18.667969 L 20.601562 18.949219 C 20.5625 18.972656 20.550781 19.019531 20.574219 19.058594 C 20.59375 19.09375 20.644531 19.105469 20.679688 19.082031 L 21.144531 18.800781 C 21.183594 18.78125 21.195312 18.730469 21.171875 18.695312 C 21.148438 18.660156 21.101562 18.648438 21.066406 18.667969 " fill-opacity="1" fill-rule="nonzero"/><path fill="rgb(100%, 100%, 100%)" d="M 24.726562 14.898438 L 24.449219 15.367188 " fill-opacity="1" fill-rule="nonzero"/><path fill="rgb(9.408569%, 65.098572%, 45.489502%)" d="M 24.660156 14.859375 L 24.382812 15.324219 C 24.359375 15.363281 24.371094 15.410156 24.410156 15.433594 C 24.449219 15.453125 24.496094 15.441406 24.515625 15.40625 L 24.792969 14.9375 C 24.816406 14.902344 24.804688 14.851562 24.765625 14.832031 C 24.730469 14.808594 24.683594 14.820312 24.660156 14.859375 " fill-opacity="1" fill-rule="nonzero"/><path fill="rgb(100%, 100%, 100%)" d="M 21.949219 19.574219 L 21.671875 20.042969 " fill-opacity="1" fill-rule="nonzero"/><path fill="rgb(9.408569%, 65.098572%, 45.489502%)" d="M 21.882812 19.535156 L 21.605469 20.003906 C 21.585938 20.039062 21.597656 20.085938 21.632812 20.109375 C 21.671875 20.132812 21.71875 20.121094 21.742188 20.082031 L 22.019531 19.613281 C 22.039062 19.578125 22.027344 19.53125 21.992188 19.507812 C 21.953125 19.484375 21.90625 19.496094 21.882812 19.535156 " fill-opacity="1" fill-rule="nonzero"/><g clip-path="url(#clip-6)"><path fill="rgb(9.408569%, 65.098572%, 45.489502%)" d="M 26.191406 17.390625 L 25.648438 17.390625 C 25.605469 17.390625 25.570312 17.425781 25.570312 17.46875 C 25.570312 17.511719 25.605469 17.546875 25.648438 17.546875 L 26.191406 17.546875 C 26.234375 17.546875 26.269531 17.511719 26.269531 17.46875 C 26.269531 17.425781 26.234375 17.390625 26.191406 17.390625 " fill-opacity="1" fill-rule="nonzero"/></g><path fill="rgb(9.408569%, 65.098572%, 45.489502%)" d="M 20.753906 17.390625 L 20.210938 17.390625 C 20.167969 17.390625 20.132812 17.425781 20.132812 17.46875 C 20.132812 17.511719 20.167969 17.546875 20.210938 17.546875 L 20.753906 17.546875 C 20.796875 17.546875 20.832031 17.511719 20.832031 17.46875 C 20.832031 17.425781 20.796875 17.390625 20.753906 17.390625 " fill-opacity="1" fill-rule="nonzero"/><path fill="rgb(100%, 100%, 100%)" d="M 20.5625 16.058594 L 21.042969 16.316406 " fill-opacity="1" fill-rule="nonzero"/><path fill="rgb(9.408569%, 65.098572%, 45.489502%)" d="M 20.527344 16.128906 L 21.003906 16.382812 C 21.042969 16.40625 21.089844 16.390625 21.113281 16.351562 C 21.132812 16.3125 21.117188 16.265625 21.078125 16.246094 L 20.601562 15.992188 C 20.5625 15.96875 20.515625 15.984375 20.496094 16.023438 C 20.472656 16.058594 20.488281 16.109375 20.527344 16.128906 " fill-opacity="1" fill-rule="nonzero"/><path fill="rgb(100%, 100%, 100%)" d="M 25.359375 18.625 L 25.835938 18.882812 " fill-opacity="1" fill-rule="nonzero"/><path fill="rgb(9.408569%, 65.098572%, 45.489502%)" d="M 25.320312 18.695312 L 25.800781 18.949219 C 25.839844 18.972656 25.886719 18.957031 25.90625 18.917969 C 25.925781 18.878906 25.914062 18.832031 25.875 18.8125 L 25.394531 18.554688 C 25.355469 18.535156 25.308594 18.550781 25.289062 18.589844 C 25.269531 18.625 25.285156 18.675781 25.320312 18.695312 " fill-opacity="1" fill-rule="nonzero"/><path fill="rgb(100%, 100%, 100%)" d="M 21.578125 14.957031 L 21.875 15.414062 " fill-opacity="1" fill-rule="nonzero"/><path fill="rgb(9.408569%, 65.098572%, 45.489502%)" d="M 21.511719 15 L 21.808594 15.457031 C 21.832031 15.492188 21.878906 15.503906 21.917969 15.480469 C 21.953125 15.457031 21.964844 15.40625 21.941406 15.371094 L 21.644531 14.914062 C 21.621094 14.878906 21.574219 14.867188 21.535156 14.890625 C 21.5 14.914062 21.488281 14.964844 21.511719 15 " fill-opacity="1" fill-rule="nonzero"/><path fill="rgb(100%, 100%, 100%)" d="M 24.527344 19.527344 L 24.820312 19.984375 " fill-opacity="1" fill-rule="nonzero"/><path fill="rgb(9.408569%, 65.098572%, 45.489502%)" d="M 24.460938 19.570312 L 24.757812 20.027344 C 24.78125 20.0625 24.828125 20.074219 24.863281 20.050781 C 24.902344 20.027344 24.910156 19.976562 24.886719 19.941406 L 24.59375 19.484375 C 24.570312 19.449219 24.519531 19.4375 24.484375 19.460938 C 24.449219 19.484375 24.4375 19.535156 24.460938 19.570312 " fill-opacity="1" fill-rule="nonzero"/><path fill="rgb(9.408569%, 65.098572%, 45.489502%)" d="M 23.121094 14.480469 L 23.121094 15.023438 C 23.121094 15.066406 23.15625 15.101562 23.199219 15.101562 C 23.242188 15.101562 23.277344 15.066406 23.277344 15.023438 L 23.277344 14.480469 C 23.277344 14.4375 23.242188 14.402344 23.199219 14.402344 C 23.15625 14.402344 23.121094 14.4375 23.121094 14.480469 " fill-opacity="1" fill-rule="nonzero"/><path fill="rgb(9.408569%, 65.098572%, 45.489502%)" d="M 23.121094 19.917969 L 23.121094 20.460938 C 23.121094 20.503906 23.15625 20.539062 23.199219 20.539062 C 23.242188 20.539062 23.277344 20.503906 23.277344 20.460938 L 23.277344 19.917969 C 23.277344 19.875 23.242188 19.839844 23.199219 19.839844 C 23.15625 19.839844 23.121094 19.875 23.121094 19.917969 " fill-opacity="1" fill-rule="nonzero"/><path fill="rgb(9.408569%, 65.098572%, 45.489502%)" d="M 23.246094 17.332031 C 23.246094 17.359375 23.226562 17.378906 23.199219 17.378906 C 23.175781 17.378906 23.15625 17.359375 23.15625 17.332031 L 23.15625 15.96875 C 23.15625 15.945312 23.175781 15.925781 23.199219 15.925781 C 23.226562 15.925781 23.246094 15.945312 23.246094 15.96875 L 23.246094 17.332031 " fill-opacity="1" fill-rule="nonzero"/><path fill="rgb(9.408569%, 65.098572%, 45.489502%)" d="M 24.222656 18.515625 C 24.195312 18.542969 24.152344 18.542969 24.125 18.515625 L 23.21875 17.585938 C 23.195312 17.558594 23.195312 17.515625 23.222656 17.488281 C 23.25 17.464844 23.292969 17.464844 23.316406 17.492188 L 24.222656 18.417969 C 24.25 18.445312 24.25 18.488281 24.222656 18.515625 " fill-opacity="1" fill-rule="nonzero"/><path fill="rgb(9.408569%, 65.098572%, 45.489502%)" d="M 23.246094 17.4375 C 23.246094 17.460938 23.230469 17.484375 23.210938 17.484375 L 21.320312 17.484375 C 21.304688 17.484375 21.289062 17.460938 21.289062 17.4375 C 21.289062 17.410156 21.304688 17.390625 21.320312 17.390625 L 23.210938 17.390625 C 23.230469 17.390625 23.246094 17.410156 23.246094 17.4375 " fill-opacity="1" fill-rule="nonzero"/><path fill="rgb(9.408569%, 65.098572%, 45.489502%)" d="M 23.472656 17.46875 C 23.472656 17.621094 23.351562 17.742188 23.199219 17.742188 C 23.050781 17.742188 22.929688 17.621094 22.929688 17.46875 C 22.929688 17.320312 23.050781 17.199219 23.199219 17.199219 C 23.351562 17.199219 23.472656 17.320312 23.472656 17.46875 " fill-opacity="1" fill-rule="nonzero"/></svg>