<?xml version="1.0" encoding="UTF-8"?><svg xmlns="http://www.w3.org/2000/svg" xmlns:xlink="http://www.w3.org/1999/xlink" contentScriptType="text/ecmascript" width="30" zoomAndPan="magnify" contentStyleType="text/css" viewBox="0 0 30 30.000001" height="30.000001" preserveAspectRatio="xMidYMid meet" version="1.0"><defs><clipPath id="clip-0"><path d="M 0.484375 4 L 28.789062 4 L 28.789062 24.675781 L 0.484375 24.675781 Z M 0.484375 4 " clip-rule="nonzero"/></clipPath><clipPath id="clip-1"><path d="M 1 14 L 12 14 L 12 24.675781 L 1 24.675781 Z M 1 14 " clip-rule="nonzero"/></clipPath><clipPath id="clip-2"><path d="M 9 1.453125 L 20 1.453125 L 20 13 L 9 13 Z M 9 1.453125 " clip-rule="nonzero"/></clipPath></defs><g clip-path="url(#clip-0)"><path fill="rgb(9.408569%, 65.098572%, 45.489502%)" d="M 25.394531 24.644531 L 3.882812 24.644531 C 2.074219 24.644531 0.601562 23.175781 0.601562 21.375 L 0.601562 7.722656 C 0.601562 5.917969 2.074219 4.449219 3.882812 4.449219 L 10.1875 4.449219 C 10.4375 4.449219 10.640625 4.652344 10.640625 4.902344 C 10.640625 5.152344 10.4375 5.355469 10.1875 5.355469 L 3.882812 5.355469 C 2.574219 5.355469 1.511719 6.417969 1.511719 7.722656 L 1.511719 21.375 C 1.511719 22.675781 2.574219 23.738281 3.882812 23.738281 L 25.394531 23.738281 C 26.699219 23.738281 27.765625 22.675781 27.765625 21.375 L 27.765625 7.722656 C 27.765625 6.417969 26.699219 5.355469 25.394531 5.355469 L 19.125 5.355469 C 18.871094 5.355469 18.667969 5.152344 18.667969 4.902344 C 18.667969 4.652344 18.871094 4.449219 19.125 4.449219 L 25.394531 4.449219 C 27.199219 4.449219 28.671875 5.917969 28.671875 7.722656 L 28.671875 21.375 C 28.671875 23.175781 27.199219 24.644531 25.394531 24.644531 Z M 25.394531 24.644531 " fill-opacity="1" fill-rule="nonzero"/></g><path fill="rgb(9.408569%, 65.098572%, 45.489502%)" d="M 14.636719 19.894531 C 14.507812 19.894531 14.386719 19.839844 14.300781 19.746094 L 1.671875 5.925781 C 1.503906 5.742188 1.515625 5.453125 1.703125 5.285156 C 1.886719 5.117188 2.175781 5.128906 2.34375 5.316406 L 14.636719 18.769531 L 26.925781 5.308594 C 27.097656 5.125 27.382812 5.109375 27.570312 5.277344 C 27.753906 5.449219 27.769531 5.734375 27.597656 5.917969 L 14.972656 19.746094 C 14.886719 19.839844 14.765625 19.894531 14.636719 19.894531 Z M 14.636719 19.894531 " fill-opacity="1" fill-rule="nonzero"/><g clip-path="url(#clip-1)"><path fill="rgb(9.408569%, 65.098572%, 45.489502%)" d="M 2.300781 24.160156 C 2.183594 24.160156 2.0625 24.113281 1.972656 24.019531 C 1.800781 23.835938 1.808594 23.550781 1.988281 23.378906 L 10.675781 15.117188 C 10.855469 14.945312 11.144531 14.953125 11.316406 15.132812 C 11.488281 15.316406 11.484375 15.601562 11.300781 15.773438 L 2.617188 24.035156 C 2.527344 24.117188 2.414062 24.160156 2.300781 24.160156 Z M 2.300781 24.160156 " fill-opacity="1" fill-rule="nonzero"/></g><path fill="rgb(9.408569%, 65.098572%, 45.489502%)" d="M 27.34375 23.859375 C 27.230469 23.859375 27.121094 23.820312 27.03125 23.738281 L 18.253906 15.46875 C 18.070312 15.296875 18.0625 15.011719 18.234375 14.832031 C 18.40625 14.648438 18.695312 14.640625 18.875 14.8125 L 27.652344 23.078125 C 27.835938 23.25 27.84375 23.539062 27.671875 23.71875 C 27.582031 23.8125 27.464844 23.859375 27.34375 23.859375 Z M 27.34375 23.859375 " fill-opacity="1" fill-rule="nonzero"/><g clip-path="url(#clip-2)"><path fill="rgb(9.408569%, 65.098572%, 45.489502%)" d="M 16.542969 4.464844 L 15.707031 4.464844 L 15.710938 5.175781 C 15.472656 4.65625 14.964844 4.328125 14.222656 4.328125 C 12.960938 4.328125 12.171875 5.285156 12.183594 6.777344 L 12.183594 7.3125 C 12.195312 8.871094 12.984375 9.761719 14.273438 9.761719 C 15.070312 9.761719 15.671875 9.351562 15.984375 8.722656 C 16.179688 9.324219 16.660156 9.679688 17.363281 9.679688 C 18.511719 9.679688 19.441406 8.625 19.425781 6.4375 C 19.40625 3.535156 17.554688 1.4375 14.671875 1.4375 C 11.472656 1.4375 9.488281 3.738281 9.507812 7.039062 C 9.53125 10.679688 11.605469 12.652344 14.773438 12.652344 C 16.148438 12.652344 17.285156 12.363281 18.214844 11.84375 L 18.207031 10.882812 C 17.179688 11.472656 16.03125 11.761719 14.769531 11.761719 C 12.296875 11.761719 10.503906 10.242188 10.484375 7.039062 C 10.460938 4.21875 11.960938 2.328125 14.675781 2.328125 C 17.105469 2.328125 18.460938 4.066406 18.476562 6.449219 C 18.488281 8.160156 17.984375 8.761719 17.355469 8.761719 C 16.886719 8.761719 16.570312 8.449219 16.5625 7.652344 Z M 15.601562 7.230469 C 15.609375 8.3125 15.144531 8.886719 14.390625 8.886719 C 13.636719 8.886719 13.167969 8.324219 13.160156 7.257812 L 13.15625 6.832031 C 13.152344 5.777344 13.597656 5.203125 14.367188 5.203125 C 15.148438 5.203125 15.59375 5.820312 15.597656 6.875 Z M 15.601562 7.230469 " fill-opacity="1" fill-rule="nonzero"/></g></svg>