<?xml version="1.0" encoding="UTF-8"?><svg xmlns="http://www.w3.org/2000/svg" xmlns:xlink="http://www.w3.org/1999/xlink" contentScriptType="text/ecmascript" width="30" zoomAndPan="magnify" contentStyleType="text/css" viewBox="0 0 30 30.000001" height="30.000001" preserveAspectRatio="xMidYMid meet" version="1.0"><defs><clipPath id="clip-0"><path d="M 1.898438 1.414062 L 28.027344 1.414062 L 28.027344 27.542969 L 1.898438 27.542969 Z M 1.898438 1.414062 " clip-rule="nonzero"/></clipPath></defs><g clip-path="url(#clip-0)"><path fill="rgb(10.198975%, 27.839661%, 53.729248%)" d="M 28.027344 23.570312 C 28.027344 25.765625 26.25 27.542969 24.058594 27.542969 L 5.871094 27.542969 C 3.679688 27.542969 1.898438 25.765625 1.898438 23.570312 L 1.898438 5.382812 C 1.898438 3.191406 3.679688 1.414062 5.871094 1.414062 L 24.058594 1.414062 C 26.25 1.414062 28.027344 3.191406 28.027344 5.382812 Z M 28.027344 23.570312 " fill-opacity="1" fill-rule="nonzero"/></g><path fill="rgb(100%, 100%, 100%)" d="M 19.210938 16.507812 L 19.636719 13.230469 L 16.390625 13.230469 L 16.390625 11.140625 C 16.390625 10.191406 16.65625 9.542969 18.015625 9.542969 L 19.75 9.542969 L 19.75 6.613281 C 19.449219 6.574219 18.421875 6.484375 17.222656 6.484375 C 14.71875 6.484375 13.007812 8.011719 13.007812 10.816406 L 13.007812 13.230469 L 10.179688 13.230469 L 10.179688 16.507812 L 13.007812 16.507812 L 13.007812 24.914062 L 16.390625 24.914062 L 16.390625 16.507812 Z M 19.210938 16.507812 " fill-opacity="1" fill-rule="nonzero"/></svg>