<?xml version="1.0" encoding="UTF-8"?><svg xmlns="http://www.w3.org/2000/svg" xmlns:xlink="http://www.w3.org/1999/xlink" contentScriptType="text/ecmascript" width="30" zoomAndPan="magnify" contentStyleType="text/css" viewBox="0 0 30 30.000001" height="30.000001" preserveAspectRatio="xMidYMid meet" version="1.0"><defs><clipPath id="clip-0"><path d="M 1.972656 1.488281 L 28.101562 1.488281 L 28.101562 27.617188 L 1.972656 27.617188 Z M 1.972656 1.488281 " clip-rule="nonzero"/></clipPath></defs><g clip-path="url(#clip-0)"><path fill="rgb(0.389099%, 46.669006%, 70.979309%)" d="M 26.164062 1.488281 L 3.902344 1.488281 C 2.835938 1.488281 1.972656 2.332031 1.972656 3.371094 L 1.972656 25.730469 C 1.972656 26.773438 2.835938 27.617188 3.902344 27.617188 L 26.167969 27.617188 C 27.234375 27.617188 28.101562 26.773438 28.101562 25.730469 L 28.101562 3.371094 C 28.101562 2.332031 27.234375 1.488281 26.164062 1.488281 Z M 26.164062 1.488281 " fill-opacity="1" fill-rule="nonzero"/></g><path fill="rgb(100%, 100%, 100%)" d="M 5.847656 11.285156 L 9.730469 11.285156 L 9.730469 23.753906 L 5.847656 23.753906 Z M 7.785156 5.078125 C 9.023438 5.078125 10.03125 6.085938 10.03125 7.324219 C 10.03125 8.5625 9.023438 9.570312 7.785156 9.570312 C 7.488281 9.570312 7.199219 9.511719 6.925781 9.398438 C 6.652344 9.285156 6.40625 9.121094 6.195312 8.910156 C 5.988281 8.699219 5.824219 8.457031 5.710938 8.183594 C 5.59375 7.90625 5.539062 7.621094 5.535156 7.324219 C 5.535156 7.027344 5.59375 6.738281 5.707031 6.464844 C 5.820312 6.1875 5.984375 5.945312 6.195312 5.734375 C 6.40625 5.523438 6.648438 5.363281 6.925781 5.25 C 7.199219 5.132812 7.488281 5.078125 7.785156 5.078125 M 12.152344 11.285156 L 15.871094 11.285156 L 15.871094 12.988281 L 15.921875 12.988281 C 16.4375 12.007812 17.703125 10.972656 19.597656 10.972656 C 23.519531 10.972656 24.246094 13.558594 24.246094 16.914062 L 24.246094 23.753906 L 20.371094 23.753906 L 20.371094 17.6875 C 20.371094 16.242188 20.34375 14.382812 18.359375 14.382812 C 16.339844 14.382812 16.03125 15.957031 16.03125 17.582031 L 16.03125 23.75 L 12.160156 23.75 L 12.160156 11.28125 Z M 12.152344 11.285156 " fill-opacity="1" fill-rule="nonzero"/></svg>