<?xml version="1.0" encoding="UTF-8"?><svg xmlns="http://www.w3.org/2000/svg" xmlns:xlink="http://www.w3.org/1999/xlink" contentScriptType="text/ecmascript" width="30" zoomAndPan="magnify" contentStyleType="text/css" viewBox="0 0 30 30.000001" height="30.000001" preserveAspectRatio="xMidYMid meet" version="1.0"><defs><clipPath id="clip-0"><path d="M 3.386719 2.902344 L 26.613281 2.902344 L 26.613281 26.128906 L 3.386719 26.128906 Z M 3.386719 2.902344 " clip-rule="nonzero"/></clipPath></defs><g clip-path="url(#clip-0)"><path fill="rgb(0.389099%, 0.389099%, 0.389099%)" d="M 5.710938 2.902344 L 24.289062 2.902344 C 25.574219 2.902344 26.613281 3.941406 26.613281 5.226562 L 26.613281 23.804688 C 26.613281 25.089844 25.574219 26.128906 24.289062 26.128906 L 5.710938 26.128906 C 4.425781 26.128906 3.386719 25.089844 3.386719 23.804688 L 3.386719 5.226562 C 3.386719 3.941406 4.425781 2.902344 5.710938 2.902344 Z M 5.710938 2.902344 " fill-opacity="1" fill-rule="evenodd"/></g><path fill="rgb(93.328857%, 11.369324%, 31.759644%)" d="M 17.972656 24.269531 C 18.679688 24.269531 19.25 23.703125 19.25 23 C 19.25 22.300781 18.679688 21.730469 17.972656 21.730469 L 17.777344 21.730469 C 18.484375 21.730469 19.058594 22.300781 19.058594 23 C 19.058594 23.703125 18.484375 24.269531 17.777344 24.269531 Z M 17.972656 24.269531 " fill-opacity="1" fill-rule="evenodd"/><path fill="rgb(39.99939%, 78.42865%, 81.17981%)" d="M 17.761719 21.730469 L 17.566406 21.730469 C 16.859375 21.730469 16.289062 22.300781 16.289062 23 C 16.289062 23.703125 16.859375 24.269531 17.566406 24.269531 L 17.761719 24.269531 C 17.054688 24.269531 16.480469 23.703125 16.480469 23 C 16.480469 22.300781 17.054688 21.730469 17.761719 21.730469 Z M 17.761719 21.730469 " fill-opacity="1" fill-rule="evenodd"/><path fill="rgb(0.389099%, 0.389099%, 0.389099%)" d="M 18.390625 23 C 18.390625 23.171875 18.332031 23.316406 18.210938 23.4375 C 18.089844 23.558594 17.941406 23.617188 17.769531 23.617188 C 17.597656 23.617188 17.449219 23.558594 17.328125 23.4375 C 17.207031 23.316406 17.148438 23.171875 17.148438 23 C 17.148438 22.832031 17.207031 22.6875 17.328125 22.566406 C 17.449219 22.445312 17.597656 22.382812 17.769531 22.382812 C 17.941406 22.382812 18.089844 22.445312 18.210938 22.566406 C 18.332031 22.6875 18.390625 22.832031 18.390625 23 Z M 18.390625 23 " fill-opacity="1" fill-rule="nonzero"/><path fill="rgb(100%, 100%, 100%)" d="M 8.03125 21.160156 L 8.03125 21.800781 L 8.785156 21.800781 L 8.785156 24.253906 L 9.539062 24.253906 L 9.539062 21.820312 L 10.152344 21.820312 L 10.363281 21.160156 Z M 14.203125 21.160156 L 14.203125 21.800781 L 14.957031 21.800781 L 14.957031 24.253906 L 15.710938 24.253906 L 15.710938 21.820312 L 16.324219 21.820312 L 16.535156 21.160156 Z M 10.503906 21.523438 C 10.503906 21.320312 10.667969 21.160156 10.871094 21.160156 C 11.074219 21.160156 11.238281 21.320312 11.238281 21.523438 C 11.238281 21.726562 11.074219 21.890625 10.871094 21.890625 C 10.667969 21.890625 10.503906 21.726562 10.503906 21.523438 Z M 10.503906 22.148438 L 11.238281 22.148438 L 11.238281 24.253906 L 10.503906 24.253906 Z M 11.554688 21.160156 L 11.554688 24.253906 L 12.292969 24.253906 L 12.292969 23.453125 L 12.519531 23.246094 L 13.238281 24.269531 L 14.027344 24.269531 L 12.992188 22.777344 L 13.921875 21.871094 L 13.027344 21.871094 L 12.292969 22.601562 L 12.292969 21.160156 Z M 19.496094 21.160156 L 19.496094 24.253906 L 20.230469 24.253906 L 20.230469 23.453125 L 20.460938 23.246094 L 21.179688 24.269531 L 21.96875 24.269531 L 20.933594 22.777344 L 21.863281 21.871094 L 20.96875 21.871094 L 20.230469 22.601562 L 20.230469 21.160156 Z M 19.496094 21.160156 " fill-opacity="1" fill-rule="evenodd"/><path fill="rgb(93.328857%, 11.369324%, 32.159424%)" d="M 18.359375 10.445312 C 19.375 11.171875 20.621094 11.597656 21.96875 11.597656 L 21.96875 9.011719 C 21.710938 9.011719 21.460938 8.984375 21.210938 8.933594 L 21.210938 10.96875 C 19.863281 10.96875 18.621094 10.542969 17.601562 9.816406 L 17.601562 15.097656 C 17.601562 17.738281 15.460938 19.878906 12.816406 19.878906 C 11.832031 19.878906 10.914062 19.582031 10.152344 19.070312 C 11.023438 19.957031 12.234375 20.507812 13.574219 20.507812 C 16.21875 20.507812 18.359375 18.367188 18.359375 15.726562 Z M 19.292969 7.835938 C 18.773438 7.269531 18.433594 6.535156 18.359375 5.722656 L 18.359375 5.390625 L 17.640625 5.390625 C 17.824219 6.421875 18.4375 7.300781 19.292969 7.835938 Z M 11.824219 17.042969 C 11.527344 16.652344 11.378906 16.210938 11.378906 15.71875 C 11.378906 14.511719 12.359375 13.53125 13.566406 13.53125 C 13.792969 13.53125 14.015625 13.566406 14.230469 13.632812 L 14.230469 10.988281 C 13.980469 10.953125 13.726562 10.9375 13.472656 10.945312 L 13.472656 13.003906 C 13.257812 12.933594 13.035156 12.902344 12.808594 12.902344 C 11.601562 12.902344 10.621094 13.878906 10.621094 15.089844 C 10.621094 15.941406 11.109375 16.683594 11.824219 17.042969 Z M 11.824219 17.042969 " fill-opacity="1" fill-rule="evenodd"/><path fill="rgb(100%, 100%, 100%)" d="M 17.601562 9.816406 C 18.621094 10.542969 19.863281 10.96875 21.210938 10.96875 L 21.210938 8.933594 C 20.460938 8.773438 19.792969 8.378906 19.292969 7.835938 C 18.4375 7.300781 17.824219 6.421875 17.640625 5.390625 L 15.757812 5.390625 L 15.757812 15.726562 C 15.753906 16.929688 14.773438 17.90625 13.566406 17.90625 C 12.855469 17.90625 12.226562 17.566406 11.824219 17.042969 C 11.109375 16.683594 10.621094 15.941406 10.621094 15.089844 C 10.621094 13.878906 11.601562 12.902344 12.808594 12.902344 C 13.042969 12.902344 13.265625 12.9375 13.472656 13.003906 L 13.472656 10.945312 C 10.878906 10.996094 8.789062 13.117188 8.789062 15.726562 C 8.789062 17.027344 9.308594 18.207031 10.152344 19.070312 C 10.914062 19.582031 11.832031 19.878906 12.816406 19.878906 C 15.460938 19.878906 17.601562 17.738281 17.601562 15.097656 Z M 17.601562 9.816406 " fill-opacity="1" fill-rule="evenodd"/><path fill="rgb(41.178894%, 78.819275%, 81.568909%)" d="M 21.210938 8.933594 L 21.210938 8.382812 C 20.519531 8.382812 19.878906 8.199219 19.292969 7.835938 C 19.816406 8.40625 20.453125 8.769531 21.210938 8.933594 Z M 17.640625 5.390625 C 17.625 5.292969 17.613281 5.195312 17.601562 5.09375 L 17.601562 4.761719 L 15 4.761719 L 15 15.097656 C 14.996094 16.300781 14.015625 17.277344 12.808594 17.277344 C 12.457031 17.277344 12.121094 17.191406 11.824219 17.042969 C 12.226562 17.566406 12.855469 17.90625 13.566406 17.90625 C 14.773438 17.90625 15.753906 16.929688 15.757812 15.726562 L 15.757812 5.390625 Z M 13.472656 10.945312 L 13.472656 10.359375 C 13.257812 10.328125 13.039062 10.3125 12.816406 10.3125 C 10.175781 10.3125 8.03125 12.453125 8.03125 15.097656 C 8.03125 16.75 8.875 18.210938 10.152344 19.070312 C 9.308594 18.207031 8.789062 17.027344 8.789062 15.726562 C 8.789062 13.117188 10.878906 10.996094 13.472656 10.945312 Z M 13.472656 10.945312 " fill-opacity="1" fill-rule="evenodd"/><path fill="rgb(100%, 100%, 100%)" d="M 17.777344 24.269531 C 18.484375 24.269531 19.058594 23.703125 19.058594 23 C 19.058594 22.300781 18.484375 21.730469 17.777344 21.730469 L 17.761719 21.730469 C 17.054688 21.730469 16.480469 22.300781 16.480469 23 C 16.480469 23.703125 17.054688 24.269531 17.761719 24.269531 Z M 17.148438 23 C 17.148438 22.660156 17.425781 22.382812 17.769531 22.382812 C 18.113281 22.382812 18.390625 22.660156 18.390625 23 C 18.390625 23.34375 18.113281 23.617188 17.769531 23.617188 C 17.425781 23.617188 17.148438 23.34375 17.148438 23 Z M 17.148438 23 " fill-opacity="1" fill-rule="evenodd"/></svg>