<?xml version="1.0" encoding="UTF-8"?><svg xmlns="http://www.w3.org/2000/svg" xmlns:xlink="http://www.w3.org/1999/xlink" contentScriptType="text/ecmascript" width="30" zoomAndPan="magnify" contentStyleType="text/css" viewBox="0 0 30 30.000001" height="30.000001" preserveAspectRatio="xMidYMid meet" version="1.0"><defs><clipPath id="clip-0"><path d="M 0.484375 3.539062 L 29.515625 3.539062 L 29.515625 23.859375 L 0.484375 23.859375 Z M 0.484375 3.539062 " clip-rule="nonzero"/></clipPath></defs><g clip-path="url(#clip-0)"><path fill="rgb(100%, 0%, 0%)" d="M 28.882812 6.722656 C 28.710938 6.101562 28.398438 5.5625 27.9375 5.105469 C 27.480469 4.648438 26.9375 4.335938 26.3125 4.164062 C 24.054688 3.550781 14.980469 3.550781 14.980469 3.550781 C 14.980469 3.550781 5.90625 3.570312 3.652344 4.183594 C 3.027344 4.351562 2.484375 4.664062 2.023438 5.121094 C 1.566406 5.578125 1.25 6.117188 1.082031 6.742188 C 0.484375 8.984375 0.484375 13.675781 0.484375 13.675781 C 0.484375 13.675781 0.484375 18.367188 1.097656 20.628906 C 1.269531 21.253906 1.582031 21.792969 2.042969 22.25 C 2.5 22.707031 3.042969 23.019531 3.671875 23.1875 C 5.925781 23.800781 15 23.800781 15 23.800781 C 15 23.800781 24.074219 23.800781 26.328125 23.1875 C 26.957031 23.019531 27.5 22.707031 27.957031 22.25 C 28.417969 21.792969 28.730469 21.253906 28.902344 20.628906 C 29.515625 18.386719 29.515625 13.675781 29.515625 13.675781 C 29.515625 13.675781 29.496094 8.984375 28.882812 6.722656 Z M 28.882812 6.722656 " fill-opacity="1" fill-rule="nonzero"/></g><path fill="rgb(100%, 100%, 100%)" d="M 12.09375 18.015625 L 19.621094 13.675781 L 12.09375 9.339844 Z M 12.09375 18.015625 " fill-opacity="1" fill-rule="nonzero"/></svg>